<svg width="52" height="52" fill="none" xmlns="http://www.w3.org/2000/svg"><path d="M48.33 27.222c-1.928-.4-4.54-.613-7.553-.613a54.02 54.02 0 00-3.504.108V2.793A2.796 2.796 0 0034.48 0H2.793C1.175 0 0 1.345 0 3.2v42.148c0 1.103 1.22 2.386 2.793 2.386h26.762v1.168c0 1.722 2.762 2.297 3.67 2.485 1.928.401 4.54.613 7.552.613 3.013 0 5.625-.212 7.552-.613.908-.188 3.671-.763 3.671-2.485V29.707c0-1.722-2.763-2.296-3.67-2.485zM50.476 39.3c-.016.033-.333.592-2.712 1.05-1.806.346-4.222.529-6.988.529-2.765 0-5.181-.183-6.987-.53-2.438-.468-2.71-1.044-2.712-1.044v-2.969c.797.374 1.699.562 2.147.655 1.928.4 4.54.612 7.552.612 3.013 0 5.625-.211 7.552-.612.449-.093 1.35-.281 2.148-.655V39.3zm-30.875.157a.762.762 0 00-.762.762v1.93H7.262c-.397 0-.66-.326-.66-.458v-7.566H18.84v2.54a.762.762 0 101.523 0v-2.54h9.192v8.023h-9.192v-1.93a.762.762 0 00-.761-.761zm13-12.096c-1.168.287-3.047.926-3.047 2.346v2.895h-9.192v-8.024H31.94a.66.66 0 01.66.66v2.123zm-13.762 5.24H6.602v-7.16c0-.516.265-.863.66-.863H18.84v8.024zm31.637 1.9c-.016.033-.333.593-2.712 1.05-1.806.346-4.222.53-6.988.53-2.765 0-5.181-.184-6.987-.53-2.438-.469-2.71-1.045-2.712-1.045v-2.968c.797.373 1.699.56 2.147.654 1.928.4 4.54.613 7.552.613 3.013 0 5.625-.212 7.552-.613.449-.093 1.35-.281 2.148-.654V34.5zm-2.712-5.838c2.297.44 2.672.978 2.709 1.044-.037.066-.412.603-2.71 1.044-1.805.347-4.221.53-6.987.53-2.765 0-5.181-.183-6.987-.53-2.297-.44-2.672-.978-2.71-1.044.038-.066.413-.603 2.71-1.044 1.806-.347 4.222-.53 6.987-.53 2.766 0 5.182.183 6.988.53zM2.793 46.21c-.734 0-1.27-.606-1.27-.863V20.516H26.61a.762.762 0 100-1.524H1.523V3.2c0-1.018.499-1.676 1.27-1.676h31.688c.7 0 1.269.57 1.269 1.27v16.2h-5.586a.762.762 0 100 1.523h5.586v6.328c-.576.06-1.118.131-1.625.213v-1.819c0-1.204-.98-2.183-2.184-2.183H7.261c-1.244 0-2.183 1.026-2.183 2.386v16.25c0 1.055 1.02 1.98 2.184 1.98h22.293v2.54H2.793zm44.972 3.736c-1.806.346-4.222.53-6.988.53-2.765 0-5.181-.184-6.987-.53-2.438-.468-2.71-1.045-2.712-1.045v-2.968c.797.373 1.699.561 2.147.654 1.928.401 4.54.613 7.552.613 1.452 0 2.827-.05 4.087-.15a.762.762 0 00-.12-1.518c-1.22.096-2.555.145-3.967.145-2.765 0-5.181-.184-6.987-.53-2.438-.468-2.71-1.045-2.712-1.045v-2.968c.797.374 1.699.561 2.147.655 1.928.4 4.54.612 7.552.612 3.013 0 5.625-.212 7.552-.612.449-.094 1.35-.281 2.148-.655V44.1c-.016.032-.297.528-2.313.967a.762.762 0 00.325 1.489c.417-.091 1.242-.272 1.988-.62v2.962c-.016.033-.333.593-2.712 1.05z" fill="#222"/><path d="M34.227 14.27V6.246c0-1.204-.98-2.184-2.184-2.184H15.234a.762.762 0 100 1.524h16.809a.66.66 0 01.66.66v8.024a.66.66 0 01-.66.66H7.262a.661.661 0 01-.66-.66V6.246a.66.66 0 01.66-.66h4.418a.762.762 0 100-1.524H7.262c-1.204 0-2.184.98-2.184 2.184v8.024c0 1.204.98 2.183 2.184 2.183h24.781c1.204 0 2.184-.98 2.184-2.183zM15.996 37.375h-5.484a.762.762 0 100 1.523h5.484a.762.762 0 100-1.523zm-4.976-8.023h1.472v1.472a.762.762 0 101.524 0v-1.472h1.472a.762.762 0 100-1.524h-1.472v-1.473a.762.762 0 10-1.524 0v1.473H11.02a.762.762 0 100 1.524zm17.099-2.881a.762.762 0 00-1.078 0L26 27.513l-1.041-1.042a.762.762 0 00-1.078 1.078l1.042 1.04-1.042 1.042a.762.762 0 101.078 1.078l1.04-1.042 1.042 1.041a.762.762 0 001.078-1.077l-1.042-1.041 1.041-1.041a.762.762 0 000-1.078zM24.288 40.64a.76.76 0 00.539-.223l3.453-3.453a.762.762 0 10-1.077-1.078L23.75 39.34a.762.762 0 00.538 1.3zm.239-3.671a.762.762 0 100-1.524.762.762 0 000 1.524zm3.047 3.859a.762.762 0 100-1.523.762.762 0 000 1.523z" fill="#222"/><path d="M29.504 13.508a1.78 1.78 0 001.777-1.777V8.784a1.78 1.78 0 00-1.777-1.777h-1.422a1.78 1.78 0 00-1.777 1.777v2.945c0 .98.797 1.778 1.777 1.778h1.422zm-1.676-1.777V8.784c0-.14.114-.254.254-.254h1.422c.14 0 .254.114.254.254v2.945c0 .14-.114.254-.254.254h-1.422a.254.254 0 01-.254-.254z" fill="#222"/></svg>