<svg width="52" height="52" fill="none" xmlns="http://www.w3.org/2000/svg"><g clip-path="url(#clip0)" fill="#222"><path d="M44.845 31.2h.862a.865.865 0 00.862-.867.865.865 0 00-.862-.866h-3.45v-1.734a.865.865 0 00-.862-.866.865.865 0 00-.862.866v1.734h-3.45a.865.865 0 00-.862.866c0 .479.386.867.862.867h6.037v1.733a4.34 4.34 0 01-1.725 3.467 4.332 4.332 0 01-1.466-2.002.861.861 0 00-1.096-.497.868.868 0 00-.525 1.086 5.95 5.95 0 001.362 2.193 12.87 12.87 0 01-2.587.087.865.865 0 00-.862.866c0 .479.386.867.862.867 1.803 0 2.837.113 4.312-.598 1.492.71 2.492.598 4.312.598a.865.865 0 00.862-.867.865.865 0 00-.862-.866c-.863.067-1.731.035-2.587-.096 1.949-2.002 1.725-4.09 1.725-5.971zM.862 52h29.322a.865.865 0 00.862-.867v-.693a5.985 5.985 0 00-3.07-5.243l-5.873-3.692a2.74 2.74 0 01-1.405-2.366V36.4a12.484 12.484 0 003.294-5.616 2.273 2.273 0 001.017-1.872v-2.99a2.326 2.326 0 00-.862-1.655v-4.394c0-.286-.604-6.873-8.624-6.873-8.02 0-8.624 6.647-8.624 6.985v4.282a2.326 2.326 0 00-.862 1.664v2.99c.004.763.39 1.473 1.026 1.889a12.276 12.276 0 003.286 5.59v2.739a2.784 2.784 0 01-1.5 2.461l-5.693 3.588A6.07 6.07 0 000 50.44v.693c0 .479.386.867.862.867zm3.165-5.356l5.692-3.597a4.466 4.466 0 002.355-3.908V36.4c0-.483-.2-.945-.552-1.274a10.593 10.593 0 01-2.777-4.715c-.233-1.031-.983-.944-.983-1.499v-2.973c.065-.152.165-.285.293-.39.361-.327.568-.793.569-1.282v-4.221c0-.546.526-5.313 6.9-5.313 6.372 0 6.898 4.724 6.898 5.2v4.334c0 1.066.768 1.308.863 1.655v2.99a.51.51 0 01-.242.433 1.733 1.733 0 00-.741 1.066 10.593 10.593 0 01-2.777 4.715c-.353.329-.553.79-.552 1.274v2.739a4.398 4.398 0 002.26 3.856l5.872 3.701a4.284 4.284 0 012.216 3.57H1.726a4.335 4.335 0 012.302-3.622z"/><path d="M47.432 23.4H35.358c-2.381 0-4.312 1.94-4.312 4.333V29l-4.786 3.215a.868.868 0 000 1.439l4.786 3.215v1.265c0 2.393 1.93 4.334 4.312 4.334h12.074c2.381 0 4.312-1.94 4.312-4.334v-10.4c0-2.393-1.93-4.333-4.312-4.333zm2.587 14.733c0 1.436-1.158 2.6-2.587 2.6H35.358a2.594 2.594 0 01-2.587-2.6V36.4a.868.868 0 00-.388-.72l-4.097-2.747 4.097-2.747a.868.868 0 00.388-.72v-1.733c0-1.436 1.158-2.6 2.587-2.6h12.074a2.594 2.594 0 012.587 2.6v10.4zM47.432 0H35.358c-2.381 0-4.312 1.94-4.312 4.333V5.6L26.26 8.814a.868.868 0 000 1.439l4.786 3.215v1.265c0 2.394 1.93 4.334 4.312 4.334h12.074c2.381 0 4.312-1.94 4.312-4.334v-10.4C51.744 1.94 49.814 0 47.432 0zm2.587 14.733c0 1.436-1.158 2.6-2.587 2.6H35.358a2.594 2.594 0 01-2.587-2.6V13a.868.868 0 00-.388-.72l-4.097-2.747 4.097-2.747a.868.868 0 00.388-.72V4.334c0-1.436 1.158-2.6 2.587-2.6h12.074a2.594 2.594 0 012.587 2.6v10.4z"/><path d="M41.395 3.467c-2.858 0-5.174 2.328-5.174 5.2v6.066c0 .479.386.867.862.867a.865.865 0 00.863-.867v-3.466h6.899v3.466c0 .479.386.867.862.867a.865.865 0 00.862-.867V8.667c0-2.872-2.316-5.2-5.174-5.2zm-3.45 6.066v-.866a3.458 3.458 0 013.45-3.467 3.458 3.458 0 013.45 3.467v.866h-6.9z"/></g><defs><clipPath id="clip0"><path fill="#fff" d="M0 0h51.744v52H0z"/></clipPath></defs></svg>