<svg width="52" height="52" fill="none" xmlns="http://www.w3.org/2000/svg"><g clip-path="url(#clip0)" fill="#222"><path d="M24.861 17.266c0 .56.453 1.015 1.01 1.015.559 0 1.011-.454 1.011-1.015V16.04a3.046 3.046 0 002.039-2.88c0-1.68-1.36-3.047-3.032-3.047a1.016 1.016 0 01-.01-2.031c.361 0 .743.18 1.103.53.401.39 1.041.38 1.43-.023a1.02 1.02 0 00-.024-1.436c-.518-.504-1.038-.787-1.506-.94V5.079c0-.56-.452-1.016-1.01-1.016s-1.01.455-1.01 1.016v1.155a3.057 3.057 0 00-2.005 2.865c0 1.68 1.36 3.047 3.032 3.047.557 0 1.01.456 1.01 1.016 0 .563-.454 1.015-1.009 1.015h-.009c-.437-.004-.888-.27-1.303-.767a1.007 1.007 0 00-1.424-.126c-.428.36-.484 1-.125 1.43.534.641 1.164 1.09 1.832 1.319v1.234z"/><path d="M19.808 41.844c-1.76 0-2.566.382-6.378 1.175-2.367.528-5.577.856-8.377.856a1.01 1.01 0 00-.904.561l-1.742 3.502H1.011c-.558 0-1.011.454-1.011 1.015 0 .561.453 1.016 1.01 1.016h7.883c.559 0 1.011-.455 1.011-1.016 0-.56-.452-1.016-1.01-1.016H4.666l1.013-2.036c2.81-.043 5.826-.372 8.187-.899 3.997-.84 4.512-1.127 5.941-1.127 2.055 0 5.053 1.036 5.053 3.047 0 .56.453 1.016 1.01 1.016.559 0 1.012-.455 1.012-1.016 0-1.998 2.97-3.047 5.053-3.047 1.429 0 1.943.286 5.94 1.128 2.361.526 5.378.855 8.188.898l1.013 2.036H29.914c-.268 0-.525.108-.714.298l-1.726 1.734H24.27l-1.725-1.734a1.008 1.008 0 00-.715-.297h-3.84c-.558 0-1.01.454-1.01 1.015 0 .561.452 1.016 1.01 1.016h3.422l1.725 1.733c.19.191.447.298.715.298h4.042c.268 0 .525-.107.715-.297l1.725-1.734h20.4c.558 0 1.01-.455 1.01-1.016 0-.56-.452-1.016-1.01-1.016h-1.396l-1.742-3.5a1.01 1.01 0 00-.904-.562c-2.8 0-6.01-.328-8.377-.855-3.8-.791-4.617-1.176-6.378-1.176a9.595 9.595 0 00-3.032.482v-5.154h1.01c.558 0 1.011-.455 1.011-1.016 0-.56-.453-1.015-1.01-1.015h-1.011V21.924a11.105 11.105 0 007.667-7.705h4.619l-5.306 14.219h-1.32c-.559 0-1.011.454-1.011 1.015 0 4.31 4.54 7.11 9.095 7.11 4.573 0 9.096-2.813 9.096-7.11 0-.56-.453-1.015-1.01-1.015h-1.322l-5.305-14.22h4.605a3.043 3.043 0 003.032-3.046c0-1.68-1.36-3.047-3.032-3.047H36.568C35.229 3.371 30.858 0 25.872 0c-4.987 0-9.357 3.37-10.696 8.125H3.032A3.043 3.043 0 000 11.172c0 1.68 1.36 3.047 3.032 3.047h4.605L2.332 28.438H1.01c-.558 0-1.011.454-1.011 1.015 0 4.31 4.54 7.11 9.096 7.11 4.572 0 9.095-2.813 9.095-7.11 0-.56-.452-1.015-1.01-1.015h-1.32l-5.306-14.22h4.62a11.105 11.105 0 007.666 7.706V35.14h-1.01c-.559 0-1.011.454-1.011 1.015 0 .561.452 1.016 1.01 1.016h1.011v5.154a9.595 9.595 0 00-3.032-.482zm29.773-11.375c-.658 2.315-3.516 4.062-6.933 4.062-3.416 0-6.275-1.747-6.932-4.062H49.58zm-2.327-2.032h-9.211l4.605-12.341 4.606 12.341zm-10.312-18.28h11.77c.557 0 1.01.455 1.01 1.015 0 .56-.453 1.015-1.01 1.015h-11.77a11.36 11.36 0 000-2.03zm-20.914 20.31c-.658 2.316-3.516 4.064-6.932 4.064-3.417 0-6.275-1.747-6.933-4.062l13.865-.001zm-2.327-2.03h-9.21l4.605-12.341L13.7 28.437zm-10.67-16.25a1.016 1.016 0 010-2.032h11.77a11.363 11.363 0 000 2.033H3.032zM26.884 43.35a5.652 5.652 0 00-1.011.933 5.641 5.641 0 00-1.01-.933v-6.178h2.02v6.178zm0-8.21H24.86V22.298a11.175 11.175 0 002.021 0v12.844zM16.776 11.173c0-5.122 4.164-9.14 9.096-9.14 4.936 0 9.096 4.021 9.096 9.14 0 4.348-3.022 8.09-7.275 8.957l-.005.001a9.194 9.194 0 01-3.631 0h-.007c-4.256-.87-7.274-4.614-7.274-8.958z"/><path d="M13.441 49.969c.558 0 1.01-.455 1.01-1.016 0-.56-.452-1.016-1.01-1.016s-1.01.455-1.01 1.016c0 .561.452 1.016 1.01 1.016z"/></g><defs><clipPath id="clip0"><path fill="#fff" d="M0 0h51.744v52H0z"/></clipPath></defs></svg>