<svg width="52" height="53" fill="none" xmlns="http://www.w3.org/2000/svg"><path d="M4.875 10.615H3.25V6.532h4.063v1.633H4.874v2.45zm29.25 31.845H32.5v-1.634h1.625v1.633zm-3.25 0H29.25v-1.634h1.625v1.633zm-3.25 0H26v-1.634h1.625v1.633zm-3.25 0H22.75v-1.634h1.625v1.633zm-3.25 0H19.5v-1.634h1.625v1.633zm-3.25 0H16.25v-1.634h1.625v1.633zm-3.25 0H13v-1.634h1.625v1.633zm-3.25 0H9.75v-1.634h1.625v1.633zm-3.25 0H6.5v-1.634h1.625v1.633zm-3.25 0H3.25v-1.634h1.625v1.633zm29.25 3.265H32.5v-1.633h1.625v1.633zm-3.25 0H29.25v-1.633h1.625v1.633zm-3.25 0H26v-1.633h1.625v1.633zm-3.25 0H22.75v-1.633h1.625v1.633zm-3.25 0H19.5v-1.633h1.625v1.633zm-3.25 0H16.25v-1.633h1.625v1.633zm-3.25 0H13v-1.633h1.625v1.633zm-3.25 0H9.75v-1.633h1.625v1.633zm-3.25 0H6.5v-1.633h1.625v1.633zm-3.25 0H3.25v-1.633h1.625v1.633zM42.25 6.532h6.5v1.633h-6.5V6.532zm0 3.266h6.5v1.633h-6.5V9.798zm0 3.267h6.5v1.633h-6.5v-1.633zm-8.125 4.898h-4.063V16.33H32.5v-2.45h1.625v4.083z" fill="#222"/><path d="M49.563 3.266h-8.126A2.444 2.444 0 0039 5.716v28.578h13V5.716a2.444 2.444 0 00-2.438-2.45zm.812 29.395h-9.75V5.716c0-.451.364-.817.813-.817h8.124c.45 0 .813.366.813.817V32.66zM34.938 37.56h-32.5A2.444 2.444 0 000 40.01v6.532a2.444 2.444 0 002.438 2.45h32.5a2.444 2.444 0 002.437-2.45V40.01a2.444 2.444 0 00-2.438-2.45zm.812 8.982c0 .45-.364.816-.813.816h-32.5a.815.815 0 01-.812-.816V40.01c0-.451.364-.817.813-.817h32.5c.448 0 .812.366.812.817v6.532zm8.938-8.982c-2.243.003-4.06 1.829-4.063 4.083v3.266c0 2.254 1.819 4.082 4.063 4.082 2.243 0 4.062-1.828 4.062-4.082v-3.266c-.003-2.254-1.82-4.08-4.063-4.083zm2.437 7.349a2.444 2.444 0 01-2.438 2.45 2.444 2.444 0 01-2.437-2.45v-3.266a2.45 2.45 0 011.625-2.3v3.116H45.5v-3.116a2.45 2.45 0 011.625 2.3v3.266zM34.938 3.266h-32.5A2.444 2.444 0 000 5.716v19.596a2.444 2.444 0 002.438 2.45h11.374v3.402c0 .826-.667 1.496-1.489 1.497H9.75v1.633H26v-1.633h-2.573c-.822 0-1.489-.67-1.49-1.497v-3.402h13a2.444 2.444 0 002.438-2.45V5.716a2.444 2.444 0 00-2.438-2.45zm-19.88 29.395c.25-.459.38-.974.38-1.497v-3.402h1.624v3.47h1.625v-3.47h1.625v3.402c0 .523.13 1.038.38 1.497h-5.635zm20.692-7.349a.815.815 0 01-.813.817h-32.5a.815.815 0 01-.812-.817V21.23H35.75v4.082zm0-5.715H1.625V5.716c0-.451.364-.817.813-.817h32.5c.448 0 .812.366.812.817v13.88z" fill="#222"/><path d="M46.312 24.612v-1.75h-1.625v1.75a3.266 3.266 0 00-2.411 3.574A3.256 3.256 0 0045.5 31.04a3.256 3.256 0 003.224-2.854 3.266 3.266 0 00-2.412-3.574zm-.812 4.783a1.621 1.621 0 01-1.569-1.206c-.19-.713.12-1.465.756-1.834v1.407h1.625v-1.407c.637.369.947 1.121.757 1.834a1.62 1.62 0 01-1.57 1.206zm-28.437-6.532h1.625v1.633h-1.625v-1.633z" fill="#222"/></svg>