<svg width="52" height="52" fill="none" xmlns="http://www.w3.org/2000/svg"><path d="M45.5 27.625h-4.063V26h2.438a.812.812 0 00.677-.363 20.443 20.443 0 002.522-5.341c.33-1.098.567-2.221.707-3.359a3.242 3.242 0 00.157-4.458v-.291a10.562 10.562 0 10-21.126 0V19.5a.812.812 0 00.89.809c.254-.024.508-.056.762-.097.35 1.172.805 2.31 1.362 3.399a3.237 3.237 0 00-2.201-.861H4.875A3.254 3.254 0 001.625 26v14.625a3.254 3.254 0 003.25 3.25h5.46l-1.373 5.49a.812.812 0 00.788 1.01h13a.812.812 0 00.813-.813v-3.25a.812.812 0 00-.813-.812h-.215l.333-1.625h4.197l-1.845 6.27 1.56.46 1.727-5.876a6.9 6.9 0 00.674 1.062l.069 4.596 1.625-.024-.073-4.875a.814.814 0 00-.19-.51 5.214 5.214 0 01-.987-1.79 3.228 3.228 0 001.25-2.563V29.25h1.012l.563 1.97a5.12 5.12 0 009.85 0l.563-1.97h1.012v8.124c0 .192.068.377.19.523a5.464 5.464 0 01.854 5.676l-2.52.28-2.034-1.017 1.494-2.305a2.378 2.378 0 00.33-1.842 2.427 2.427 0 00-1.13-1.54 2.55 2.55 0 00-3.423.774l-5.817 8.954a.813.813 0 00-.11.631l.537 2.243a.812.812 0 00.967.604l1.122-.25a.81.81 0 00.602.27h11.376a4.067 4.067 0 004.062-4.063V32.5a4.88 4.88 0 00-4.875-4.875zm-12.188-3.25H32.13a18.62 18.62 0 01-1.5-2.9 8.24 8.24 0 002.683 2.589v.311zm1.183-1.512a6.689 6.689 0 01-3.123-3.465 13.224 13.224 0 007.591-8.26l.899-2.881a9.536 9.536 0 004.013 4.418v4.387a6.504 6.504 0 01-6.934 6.486 6.203 6.203 0 01-2.446-.685zm12.63-8.238A1.627 1.627 0 0145.5 16.25V13a1.627 1.627 0 011.625 1.625zm-1.606 5.199a18.8 18.8 0 01-2.086 4.551h-1.995v-.279a8.063 8.063 0 004.021-6.221h.041c.167 0 .334-.013.5-.038-.124.67-.284 1.334-.481 1.987zm-17.081-7.637a8.936 8.936 0 0117.844-.716 3.246 3.246 0 00-.782-.096h-.61a7.89 7.89 0 01-3.828-4.516l-.48-1.43a.812.812 0 00-1.545.016l-1.625 5.208a11.542 11.542 0 01-8.974 7.916v-6.381zM10.79 48.75l2.843-11.375h4.946L17.158 48.75H10.79zm11.146 0h-3.142l.203-1.625h2.94v1.625zm-1.06-3.25h-1.675l.203-1.625h1.805l-.333 1.625zm8.373-4.875a1.624 1.624 0 01-.924 1.467c-.107.05-.22.089-.336.113-.12.029-.242.044-.365.045h-8.017l.698-5.587a.812.812 0 00-.806-.913H13a.812.812 0 00-.788.615L10.74 42.25H4.875a1.627 1.627 0 01-1.625-1.625V26a1.627 1.627 0 011.625-1.625h22.75A1.627 1.627 0 0129.25 26v14.625zm1.625-13V26c0-.23-.025-.46-.073-.684.069.108.138.215.209.322a.813.813 0 00.677.362h1.625v1.625h-2.438zm9.862 3.152a3.478 3.478 0 01-2.796 2.49 3.5 3.5 0 01-3.928-2.494l-.442-1.546a1.626 1.626 0 001.367-1.602v-2.822a7.738 7.738 0 002.44.384c.826 0 1.647-.125 2.434-.373v2.811a1.626 1.626 0 001.367 1.602l-.442 1.55zM45.5 37.09v-7.84a3.254 3.254 0 013.25 3.25v10.648l-2.04.226a7.079 7.079 0 00-1.21-6.285zm-6.501 1.72a.91.91 0 011.467-.05.765.765 0 01.03.888l-1.704 2.628-2.351.47 2.558-3.936zm-5.628 8.661l.754-1.16v2.178l-.485.108-.269-1.126zm12.941 1.28H35.75v-4.209l3.136-.627 3 1.5a.81.81 0 00.454.081l6.41-.712v1.53a2.44 2.44 0 01-2.438 2.437z" fill="#222"/><path d="M39.813 17.875h-1.626a.812.812 0 11-1.624 0h-1.626a2.438 2.438 0 104.876 0zm1.218-2.437a1.22 1.22 0 100-2.439 1.22 1.22 0 000 2.438zM8.125 26h-3.25v1.625h3.25V26zM13 26H9.75v1.625H13V26zm4.875 0h-3.25v1.625h3.25V26zm4.875 0H19.5v1.625h3.25V26zm4.875 0h-3.25v1.625h3.25V26z" fill="#222"/></svg>