<svg width="52" height="52" fill="none" xmlns="http://www.w3.org/2000/svg"><g clip-path="url(#clip0)" fill="#222"><path d="M24.053 37.73a.76.76 0 00-.758.761c0 .42.34.762.758.762h3.638a.76.76 0 00.758-.762.76.76 0 00-.758-.762h-3.638zM9.095 25.902h5.01a2.124 2.124 0 001.98 1.37c.903 0 1.674-.57 1.98-1.37h1.002a.76.76 0 00.758-.762.76.76 0 00-.758-.762h-1.002a2.124 2.124 0 00-1.98-1.37c-.902 0-1.673.57-1.98 1.37h-5.01a.76.76 0 00-.758.762c0 .42.34.762.758.762zm6.99-1.371a.608.608 0 010 1.219.608.608 0 010-1.22zm-6.99-2.996h.968a2.125 2.125 0 001.98 1.37c.903 0 1.674-.57 1.98-1.37h5.044a.76.76 0 00.758-.762.76.76 0 00-.758-.762h-5.044a2.125 2.125 0 00-1.98-1.37c-.903 0-1.674.57-1.98 1.37h-.968a.76.76 0 00-.758.762c0 .42.34.762.758.762zm2.948-1.371a.608.608 0 010 1.218.608.608 0 010-1.218zm7.176-5.637a.76.76 0 00.758-.762.76.76 0 00-.758-.762.76.76 0 00-.758.762c0 .42.34.762.758.762zm-2.089 0a.76.76 0 00.758-.762.76.76 0 00-.758-.762.76.76 0 00-.758.762c0 .42.34.762.758.762zm-2.089 0a.76.76 0 00.758-.762.76.76 0 00-.758-.762.76.76 0 00-.758.762c0 .42.34.762.758.762z"/><path d="M49.47 5.127h-.284l.212-.213a1.642 1.642 0 000-2.311L47.738.935a1.623 1.623 0 00-2.3 0l-4.17 4.192H2.273A2.282 2.282 0 000 7.412v31.633a2.79 2.79 0 002.78 2.793h17.952v5.389H17.08c-.976 0-1.77.797-1.77 1.777v.761c0 .98.794 1.777 1.77 1.777h17.584c.975 0 1.769-.797 1.769-1.777v-.761c0-.98-.794-1.777-1.769-1.777h-3.653v-5.389h8.1a.76.76 0 00.758-.762.76.76 0 00-.758-.761H2.78c-.696 0-1.263-.57-1.263-1.27V36.79h48.712v2.255c0 .7-.567 1.27-1.263 1.27h-6.317a.76.76 0 00-.758.761c0 .421.34.762.758.762h6.317a2.79 2.79 0 002.779-2.793V7.412c0-1.26-1.02-2.285-2.274-2.285zM34.664 48.75c.14 0 .253.114.253.254v.761c0 .14-.113.254-.253.254H17.08a.253.253 0 01-.252-.254v-.761c0-.14.113-.254.252-.254h17.585zm-12.416-6.912h7.248v5.389h-7.248v-5.389zM46.51 2.013a.11.11 0 01.157 0l1.659 1.667a.112.112 0 010 .157l-1.583 1.591-1.816-1.824 1.583-1.591zM43.855 4.68l1.816 1.824-.529.532-1.816-1.825.53-.531zm-1.6 1.608l1.815 1.825-8.97 9.014-1.815-1.825 8.97-9.014zm-1.123 6.964c1.031 0 1.87.843 1.87 1.88a1.876 1.876 0 01-1.87 1.878c-1.03 0-1.87-.843-1.87-1.879l.002-.036 1.833-1.84c.012-.001.023-.003.035-.003zm-7.347 4.706l-2.244.921.916-2.254 1.328 1.333zm16.443 17.308H1.516V7.412c0-.42.34-.761.758-.761H39.75l-1.155 1.161h-25.76a.76.76 0 00-.758.762c0 .42.34.761.758.761H37.08l-5.346 5.373a1.61 1.61 0 00-.351.533l-1.693 4.165a1.025 1.025 0 00.942 1.411c.13 0 .26-.025.386-.076l4.145-1.702c.194-.08.367-.194.516-.34l2.306-2.317a3.39 3.39 0 003.147 2.153c1.867 0 3.386-1.526 3.386-3.403a3.406 3.406 0 00-2.142-3.162l2.622-2.634h2.558v23.247h-.401L44.407 27.8a.756.756 0 00-1.036-.279.764.764 0 00-.277 1.04l2.31 4.02h-10.59l-1.135-1.976 5.294-9.215 2.352 4.094a.755.755 0 001.035.278.764.764 0 00.278-1.04l-2.51-4.367a1.32 1.32 0 00-1.155-.671c-.482 0-.914.25-1.155.67l-5.014 8.727-6.433-11.197a1.32 1.32 0 00-1.156-.67c-.482 0-.914.25-1.156.67l-1.709 2.975v-8.165c0-.98-.793-1.777-1.768-1.777H7.58c-.975 0-1.769.797-1.769 1.777V29.35c0 .7.567 1.27 1.263 1.27h9.67l-1.127 1.962H4.187V9.335h5.11a.76.76 0 00.759-.761.76.76 0 00-.758-.762H3.935c-.697 0-1.263.57-1.263 1.27v23.754c0 .7.566 1.27 1.263 1.27H47.81c.697 0 1.263-.57 1.263-1.27V9.082c0-.7-.567-1.27-1.263-1.27h-1.295l1.156-1.161h1.8a.76.76 0 01.758.761v27.855zM20.836 16.913v12.184H7.327V16.913h13.509zM7.327 15.39v-2.695c0-.14.113-.254.253-.254h13.003c.14 0 .253.114.253.254v2.695H7.327zm11.167 15.23h2.594c.697 0 1.264-.569 1.264-1.269v-1.613c.19.09.4.14.622.14.517 0 .98-.268 1.239-.719l1.29-2.245a.156.156 0 01.141-.082c.044 0 .103.014.142.082l.795 1.384c.259.45.722.72 1.24.72.517 0 .98-.27 1.24-.72l.197-.343 3.807 6.627H17.367l1.127-1.961zm3.858-5.432v-1.281l2.864-4.987 3.166 5.511-.561.978-.722-1.257a1.66 1.66 0 00-1.455-.844 1.66 1.66 0 00-1.454.844l-1.217 2.118-.621-1.082z"/></g><defs><clipPath id="clip0"><path fill="#fff" d="M0 0h51.744v52H0z"/></clipPath></defs></svg>