<svg width="52" height="52" fill="none" xmlns="http://www.w3.org/2000/svg"><g clip-path="url(#clip0)" fill="#222"><path d="M28.957 42.46a5.922 5.922 0 002.962-5.126 5.926 5.926 0 00-5.92-5.92 5.926 5.926 0 00-5.919 5.92c0 2.188 1.194 4.1 2.963 5.125a6.392 6.392 0 00-3.43 5.658v3.121c0 .42.341.762.762.762h11.25c.42 0 .761-.341.761-.762v-3.12a6.391 6.391 0 00-3.429-5.659zm-7.353-5.126A4.401 4.401 0 0126 32.938a4.401 4.401 0 014.396 4.396A4.401 4.401 0 0126 41.731a4.401 4.401 0 01-4.396-4.397zm9.26 13.143h-9.727v-2.36A4.869 4.869 0 0126 43.254a4.869 4.869 0 014.863 4.863v2.36zm15.739-8.017a5.922 5.922 0 002.963-5.126 5.926 5.926 0 00-5.92-5.92 5.926 5.926 0 00-5.92 5.92c0 2.188 1.194 4.1 2.963 5.125a6.392 6.392 0 00-3.43 5.658v3.121c0 .42.342.762.763.762h2.616a.762.762 0 100-1.523h-1.855v-2.36a4.869 4.869 0 014.863-4.863 4.869 4.869 0 014.864 4.863v2.36h-4.317a.762.762 0 100 1.523h5.078a.762.762 0 00.762-.762v-3.12a6.392 6.392 0 00-3.43-5.659zm-7.353-5.126a4.401 4.401 0 014.396-4.396 4.401 4.401 0 014.396 4.396 4.401 4.401 0 01-4.396 4.397 4.401 4.401 0 01-4.396-4.397zM19.614 7.696a.853.853 0 100-1.707.853.853 0 000 1.707zm-2.548-.25a.853.853 0 10-1.207-1.206.853.853 0 001.207 1.206zm5.698.25a.853.853 0 100-1.707.853.853 0 000 1.707z"/><path d="M38.949 30.946l-.551-1.856a7.03 7.03 0 00.562-.503h3.67a1.78 1.78 0 001.778-1.777V1.777A1.78 1.78 0 0042.63 0H9.369a1.78 1.78 0 00-1.777 1.777V3.99a.762.762 0 001.523 0V1.777c0-.14.114-.254.254-.254h5.594c-1.6 1.206-2.62 3.018-2.62 5.042 0 1.898.88 3.657 2.433 4.902l-.55 1.856a.762.762 0 00.946.947l3.904-1.158c.18.012.361.018.538.018 4.01 0 7.271-2.945 7.271-6.565 0-2.024-1.02-3.836-2.62-5.042H42.63c.14 0 .254.114.254.254V26.81c0 .14-.114.254-.254.254H40.1a6.1 6.1 0 00.73-2.876c0-3.62-3.261-6.565-7.27-6.565-5.328 0-8.9 5.05-6.536 9.44H14.267a5.935 5.935 0 00-3.076-4.928 5.456 5.456 0 002.613-4.652 5.461 5.461 0 00-4.689-5.398v-4.54a.762.762 0 00-1.523 0v4.541a5.458 5.458 0 00-4.689 5.397 5.452 5.452 0 002.614 4.652 5.924 5.924 0 00-3.083 5.194v10.008a5.928 5.928 0 002.963 5.123 6.392 6.392 0 00-3.43 5.658v3.121c0 .42.341.762.762.762h11.25c.42 0 .762-.341.762-.762v-3.12a6.392 6.392 0 00-3.43-5.659 5.928 5.928 0 002.963-5.125v-8.747h13.894c1.331 1.329 3.255 2.166 5.392 2.166.177 0 .357-.006.537-.018l3.905 1.158a.762.762 0 00.947-.947zM25.362 6.565c0 2.78-2.578 5.042-5.747 5.042-.55 0-.614-.062-.837.005l-2.692.798.302-1.02a.762.762 0 00-.3-.846c-1.411-.965-2.22-2.415-2.22-3.979 0-2.78 2.577-5.042 5.747-5.042 3.169 0 5.747 2.262 5.747 5.042zM4.427 17.483a3.932 3.932 0 013.927-3.927 3.932 3.932 0 013.927 3.927 3.932 3.932 0 01-3.927 3.927 3.932 3.932 0 01-3.927-3.927zm8.79 30.634v2.36H3.49v-2.36a4.869 4.869 0 014.863-4.863 4.869 4.869 0 014.863 4.863zm-4.863-6.386a4.401 4.401 0 01-4.396-4.36v-.037a4.401 4.401 0 014.396-4.396 4.401 4.401 0 014.396 4.396c0 2.4-1.95 4.397-4.396 4.397zm4.396-13.906v5.55c-2.366-2.628-6.454-2.594-8.793 0V27.33a4.401 4.401 0 014.397-4.397 4.401 4.401 0 014.396 4.397v.495zm24.036 1.187l.303 1.021c-3.556-1.055-2.433-.804-3.53-.804-1.957 0-3.685-.863-4.723-2.173l-.052-.066a4.672 4.672 0 01-.908-2.049c-.524-3.054 2.18-5.795 5.683-5.795 3.37 0 6.084 2.564 5.714 5.588l-.006.05c-.173 1.29-.924 2.524-2.181 3.383a.762.762 0 00-.3.845z"/><path d="M33.56 23.612a.853.853 0 100 1.706.853.853 0 000-1.706zm3.149 1.706a.853.853 0 100-1.706.853.853 0 000 1.706zm-6.169-.008a.853.853 0 10-.274-1.684.853.853 0 00.273 1.684z"/></g><defs><clipPath id="clip0"><path fill="#fff" d="M0 0h52v52H0z"/></clipPath></defs></svg>