<svg width="52" height="52" fill="none" xmlns="http://www.w3.org/2000/svg"><path d="M35.504 29.453H30.57a1.016 1.016 0 000 2.031h4.934c.56 0 1.016.456 1.016 1.016v2.03c0 .64-.789.93-1.259 1.046l-7.17 1.766a8.486 8.486 0 01-2.091.236c-.776 0-1.42-.073-2.088-.236l-7.173-1.766c-.47-.116-1.259-.405-1.259-1.045V32.5c0-.56.456-1.016 1.016-1.016h4.934a1.016 1.016 0 000-2.031h-4.934A3.05 3.05 0 0013.45 32.5v11.865c0 1.12.911 2.031 2.031 2.031h21.04c1.12 0 2.03-.911 2.03-2.031V32.5a3.05 3.05 0 00-3.046-3.047zM15.481 44.365v-7.07c.239.1.497.185.772.253l7.175 1.767c.823.2 1.64.294 2.572.294.932 0 1.75-.093 2.574-.295l7.173-1.766a5.19 5.19 0 00.773-.253v7.07H15.48z" fill="#222"/><path d="M45.45 33.523V14.22c0-3.92-3.19-7.11-7.11-7.11h-5.267a14.376 14.376 0 00-2.807-1.194V3.047A3.05 3.05 0 0027.219 0H24.78a3.05 3.05 0 00-3.047 3.047v2.868c-.975.297-1.915.697-2.807 1.194H13.66c-3.92 0-7.11 3.19-7.11 7.11v19.304a2.033 2.033 0 00-1.878 2.024v11.375C4.672 49.722 6.95 52 9.75 52h32.5c2.8 0 5.078-2.278 5.078-5.078V35.547c0-1.069-.83-1.945-1.879-2.024zM38.34 9.141c2.8 0 5.078 2.278 5.078 5.078v19.297H42.32l-1.09-13.085c-.337-4.038-1.982-7.796-4.633-10.58a15.327 15.327 0 00-.724-.71h2.466zm-2.184 40.828H15.844a5.387 5.387 0 01-3.9-1.713c-.86-.935-1.28-2.1-1.182-3.281L12.793 20.6c.378-4.536 2.72-9.11 6.725-11.53.102-.04.197-.094.28-.163C21.563 7.903 23.639 7.313 26 7.313c2.361 0 4.437.59 6.203 1.594a.974.974 0 00.279.163c4.004 2.42 6.347 6.994 6.724 11.53l2.032 24.375c.098 1.181-.321 2.346-1.181 3.281a5.388 5.388 0 01-3.9 1.713zM23.766 3.047c0-.56.455-1.016 1.015-1.016h2.438c.56 0 1.015.456 1.015 1.016V5.45a14.749 14.749 0 00-4.469 0V3.047zM13.66 9.14h2.466c-.248.227-.49.464-.724.71-2.651 2.784-4.296 6.542-4.633 10.58L9.68 33.516H8.582V14.219c0-2.8 2.278-5.078 5.078-5.078zM9.75 49.969a3.05 3.05 0 01-3.047-3.047V35.547H9.51l-.772 9.26c-.146 1.753.461 3.467 1.71 4.825.108.116.22.228.334.337H9.75zm35.547-3.047a3.05 3.05 0 01-3.047 3.047h-1.032c.114-.11.226-.22.333-.337 1.25-1.358 1.857-3.072 1.711-4.826l-.772-9.26h2.807v11.376z" fill="#222"/><path d="M24.564 23.809c.383.383.892.593 1.436.593.543 0 1.053-.21 1.436-.593l2.873-2.873a2.034 2.034 0 000-2.872l-2.873-2.873A2.017 2.017 0 0026 14.597c-.544 0-1.053.211-1.436.594l-2.873 2.873a2.017 2.017 0 00-.594 1.436c0 .543.211 1.053.594 1.436l2.873 2.873zM26 16.627l2.873 2.873L26 22.372 23.127 19.5 26 16.627zm0 12.826a1.015 1.015 0 10-.002 2.03 1.015 1.015 0 00.002-2.03z" fill="#222"/></svg>