<svg width="52" height="52" fill="none" xmlns="http://www.w3.org/2000/svg"><g clip-path="url(#clip0)" fill="#fff"><path d="M9.146 40.214a4.24 4.24 0 00-2.049.523A24.013 24.013 0 012.031 26C2.031 12.783 12.783 2.031 26 2.031c1.607 0 3.213.16 4.773.476a1.016 1.016 0 00.403-1.992A26.193 26.193 0 0026 0C19.055 0 12.526 2.704 7.615 7.615 2.705 12.525 0 19.055 0 26a26.047 26.047 0 005.595 16.113 4.236 4.236 0 00-.715 2.366c0 1.14.444 2.21 1.25 3.016a4.236 4.236 0 003.016 1.25c1.14 0 2.21-.444 3.016-1.25a4.237 4.237 0 001.25-3.016c0-1.14-.444-2.21-1.25-3.016a4.237 4.237 0 00-3.016-1.25zm1.58 5.845a2.22 2.22 0 01-1.58.655 2.22 2.22 0 01-1.58-.655 2.22 2.22 0 01-.655-1.58c0-.597.233-1.158.655-1.58a2.219 2.219 0 011.58-.654c.596 0 1.157.232 1.58.654.422.422.654.983.654 1.58a2.22 2.22 0 01-.654 1.58zM46.404 9.886a4.273 4.273 0 00-.533-5.382 4.24 4.24 0 00-3.017-1.249 4.24 4.24 0 00-3.016 1.25 4.237 4.237 0 00-1.25 3.016c0 1.14.444 2.21 1.25 3.016a4.238 4.238 0 003.016 1.25 4.24 4.24 0 002.05-.524A24.014 24.014 0 0149.968 26c0 13.217-10.752 23.969-23.969 23.969-1.59 0-3.182-.157-4.728-.466a1.016 1.016 0 00-.398 1.992C22.55 51.83 24.276 52 26 52c6.945 0 13.474-2.705 18.385-7.615C49.295 39.475 52 32.945 52 26a26.05 26.05 0 00-5.596-16.114zm-5.13-.785a2.22 2.22 0 01-.654-1.58c0-.597.233-1.158.655-1.58a2.219 2.219 0 011.58-.655 2.22 2.22 0 011.58.655 2.24 2.24 0 010 3.16 2.222 2.222 0 01-1.58.654 2.22 2.22 0 01-1.58-.654z"/><path d="M21.81 43.469c0 .56.454 1.015 1.015 1.015h6.35c.561 0 1.016-.454 1.016-1.015v-1.97a15.902 15.902 0 003.811-1.579l1.39 1.39a1.016 1.016 0 001.437 0l4.489-4.492a1.016 1.016 0 000-1.436l-1.389-1.389c.691-1.2 1.22-2.476 1.58-3.812h1.962c.56 0 1.015-.454 1.015-1.015v-6.35c0-.561-.455-1.016-1.015-1.016h-1.962a15.905 15.905 0 00-1.58-3.812l1.381-1.38a1.017 1.017 0 000-1.438l-4.492-4.488a1.016 1.016 0 00-1.436 0l-1.38 1.38a15.902 15.902 0 00-3.811-1.58v-1.95c0-.562-.455-1.016-1.016-1.016h-6.35c-.56 0-1.016.454-1.016 1.015v1.951a15.889 15.889 0 00-3.811 1.58l-1.38-1.38a1.016 1.016 0 00-1.436 0L10.69 15.17a1.014 1.014 0 000 1.437l1.381 1.38a15.9 15.9 0 00-1.58 3.812H8.533c-.56 0-1.015.454-1.015 1.015l-.004 6.35a1.015 1.015 0 001.016 1.017h1.961c.36 1.335.889 2.612 1.58 3.811l-1.389 1.389a1.016 1.016 0 000 1.436l4.489 4.492a1.016 1.016 0 001.437 0l1.39-1.39c1.2.691 2.476 1.22 3.811 1.58v1.969zm-3.414-5.685a1.016 1.016 0 00-1.27.135l-1.237 1.237-3.052-3.056 1.235-1.236c.339-.338.395-.867.135-1.269a13.903 13.903 0 01-1.924-4.642 1.016 1.016 0 00-.993-.803H9.546l.002-4.319h1.742c.48 0 .893-.334.993-.802a13.904 13.904 0 011.924-4.643c.26-.401.204-.93-.135-1.269l-1.227-1.228 3.055-3.053 1.226 1.227c.339.339.867.395 1.27.135a13.897 13.897 0 014.642-1.924c.468-.1.802-.514.802-.993V9.547h4.32v1.734c0 .479.334.893.802.993a13.907 13.907 0 014.642 1.924c.402.26.93.204 1.27-.135l1.226-1.227 3.055 3.053-1.227 1.228a1.015 1.015 0 00-.135 1.27 13.912 13.912 0 011.924 4.642c.1.468.514.802.993.802h1.745v4.32H40.71c-.48 0-.893.334-.993.802a13.9 13.9 0 01-1.924 4.642c-.26.402-.204.931.135 1.27l1.235 1.235-3.053 3.055-1.236-1.236a1.015 1.015 0 00-1.27-.135 13.911 13.911 0 01-4.642 1.924c-.468.1-.802.514-.802.993v1.752h-4.32v-1.752c0-.479-.334-.892-.802-.993a13.904 13.904 0 01-4.642-1.924z"/><path d="M34.392 26c0-4.628-3.765-8.392-8.392-8.392-4.628 0-8.392 3.764-8.392 8.392 0 4.627 3.764 8.392 8.392 8.392 4.627 0 8.392-3.765 8.392-8.392zm-14.753 0A6.368 6.368 0 0126 19.64 6.368 6.368 0 0132.362 26 6.368 6.368 0 0126 32.36 6.368 6.368 0 0119.64 26zM35.352 3.841c.267 0 .529-.109.718-.298a1.03 1.03 0 00.297-.719c0-.266-.108-.528-.297-.718a1.023 1.023 0 00-.718-.297 1.02 1.02 0 00-1.016 1.015 1.02 1.02 0 001.016 1.017zM16.693 48.177c-.267 0-.53.109-.718.297a1.024 1.024 0 00-.298.719c0 .268.109.529.298.718.189.188.45.297.718.297.267 0 .53-.108.718-.297.189-.19.297-.451.297-.718 0-.267-.108-.53-.297-.718a1.024 1.024 0 00-.718-.298z"/></g><defs><clipPath id="clip0"><path fill="#fff" d="M0 0h52v52H0z"/></clipPath></defs></svg>