<svg width="112" height="105" fill="none" xmlns="http://www.w3.org/2000/svg"><circle cx="62.5" cy="55.5" r="49.5" fill="#A9CF46"/><g clip-path="url(#clip0)" fill="#222"><path d="M61.062 60.432A23.65 23.65 0 0075.81 38.17c0-13.404-11.58-24.308-25.814-24.308-14.233 0-25.813 10.904-25.813 24.308A23.65 23.65 0 0038.93 60.432l.2.109 1.367 2.242a5.104 5.104 0 00-1.205 7.868 5.14 5.14 0 003.82 8.605H56.88a5.14 5.14 0 003.82-8.605 5.104 5.104 0 00-1.205-7.868l1.367-2.242.2-.109zM56.88 75.814H43.113a1.721 1.721 0 010-3.442H56.88a1.721 1.721 0 010 3.442zm0-6.884H43.113a1.721 1.721 0 010-3.442H56.88a1.72 1.72 0 010 3.442zm2.62-11.567l-.688.374a1.73 1.73 0 00-.648.617l-2.25 3.692h-.755V48.992l8.1-8.1-2.433-2.434-8.605 8.604c-.322.323-.504.76-.504 1.217v13.767h-3.442V48.28a1.72 1.72 0 00-.504-1.217l-8.604-8.604-2.434 2.433 8.1 8.1v13.055h-.754l-2.25-3.692a1.73 1.73 0 00-.648-.617l-.688-.374a1.86 1.86 0 00-.17-.08A20.264 20.264 0 0127.624 38.17c0-11.505 10.036-20.866 22.372-20.866 12.337 0 22.372 9.36 22.372 20.866A20.264 20.264 0 0159.67 57.283a2.03 2.03 0 00-.17.08zm-44.874-43.32l-1.54 3.079 10.326 5.162 1.539-3.078-10.325-5.163zm70.956.661l-10.95 3.653 1.088 3.265 10.95-3.653-1.088-3.265zM17.3 36.233H6.973v3.442h10.325v-3.442zm75.72 0H82.693v3.442h10.325v-3.442zm-69.608 20.83l-10.325 5.163 1.54 3.078 10.324-5.162-1.539-3.079zm53.166.007l-1.539 3.078 10.325 5.163 1.54-3.079-10.326-5.162zM51.717 1.814h-3.442v8.605h3.442V1.814z"/><path d="M99.903 82.697v-3.442c-22.452 0-46.31 5.428-46.464 15.489h-6.885C46.4 84.683 22.54 79.255.09 79.255v3.442c25.211 0 42.816 6.328 43.013 12.047H.09v3.442h99.813v-3.442H56.889c.198-5.72 17.803-12.047 43.014-12.047z"/><path d="M.18 87.865L0 91.302l32.703 1.722.181-3.437L.18 87.865zm99.634-.003L67.11 89.587l.181 3.437L99.995 91.3l-.181-3.438z"/></g><defs><clipPath id="clip0"><path fill="#fff" d="M0 0h100v100H0z"/></clipPath></defs></svg>