<svg width="112" height="105" fill="none" xmlns="http://www.w3.org/2000/svg"><circle cx="62.5" cy="55.5" r="49.5" fill="#FDD441"/><g clip-path="url(#clip0)" fill="#222"><path d="M69.371 77.084a1.956 1.956 0 00-2.788-.025l-.02.018a1.957 1.957 0 00-.059 2.788 1.98 1.98 0 001.404.588c.474 0 .966-.174 1.385-.581a1.956 1.956 0 00.078-2.788z"/><path d="M87.055 39.484a1.954 1.954 0 00-3.663 1.357 40.87 40.87 0 012.54 14.243c0 22.613-18.396 41.01-41.01 41.01-8.39 0-16.456-2.516-23.326-7.276a1.953 1.953 0 10-2.225 3.21C26.898 97.243 35.733 100 44.923 100c11.998 0 23.277-4.672 31.76-13.156 8.484-8.483 13.156-19.762 13.156-31.76a44.78 44.78 0 00-2.784-15.6zM60.047 12.78a44.795 44.795 0 00-15.125-2.611c-11.997 0-23.276 4.672-31.76 13.155C4.68 31.808.007 43.087.007 55.084c0 9.304 2.82 18.23 8.154 25.814a1.95 1.95 0 002.72.473 1.953 1.953 0 00.475-2.72c-4.87-6.923-7.444-15.072-7.444-23.567 0-22.613 18.398-41.01 41.01-41.01 4.742 0 9.388.802 13.81 2.383a1.953 1.953 0 101.315-3.678z"/><path d="M99.844 16.195a1.953 1.953 0 00-1.804-1.205H87.779l1.103-1.104a1.953 1.953 0 00-2.761-2.762l-1.118 1.118V1.952a1.954 1.954 0 00-3.334-1.38L64.454 17.788a1.953 1.953 0 00-.572 1.38v6.775c-5.633-3.685-12.127-5.62-18.96-5.62-19.167 0-34.76 15.594-34.76 34.761s15.593 34.76 34.76 34.76a34.706 34.706 0 0017.999-5.016 1.953 1.953 0 00-2.025-3.34 30.8 30.8 0 01-15.974 4.451c-17.013 0-30.855-13.841-30.855-30.855 0-17.014 13.842-30.855 30.855-30.855 6.948 0 13.5 2.252 18.96 6.512v2.622l-3.56 3.559a23.719 23.719 0 00-15.4-5.663c-13.137 0-23.824 10.688-23.824 23.825 0 13.137 10.687 23.825 23.824 23.825 13.137 0 23.825-10.688 23.825-23.825a23.718 23.718 0 00-5.662-15.4l3.572-3.573h2.599a30.925 30.925 0 016.521 18.973 30.777 30.777 0 01-4.614 16.239 1.953 1.953 0 103.32 2.059 34.677 34.677 0 005.2-18.298c0-6.746-1.982-13.36-5.635-18.974h6.776c.518 0 1.014-.205 1.38-.572L99.42 18.323a1.952 1.952 0 00.424-2.128zm-35.002 38.89c0 10.983-8.936 19.918-19.92 19.918-10.983 0-19.918-8.935-19.918-19.919 0-10.983 8.935-19.919 19.919-19.919 4.79 0 9.19 1.7 12.63 4.528l-4.448 4.447a13.598 13.598 0 00-8.182-2.726c-7.538 0-13.67 6.133-13.67 13.67 0 7.538 6.132 13.67 13.67 13.67s13.67-6.132 13.67-13.67c0-3.066-1.015-5.9-2.726-8.182l4.448-4.448a19.827 19.827 0 014.527 12.63zm-21.3 1.38c.381.382.88.572 1.38.572.5 0 1-.19 1.382-.572l6.761-6.761a9.706 9.706 0 011.622 5.38c0 5.384-4.38 9.764-9.764 9.764-5.384 0-9.765-4.38-9.765-9.764 0-5.384 4.38-9.764 9.765-9.764 1.987 0 3.836.598 5.38 1.622l-6.761 6.761a1.953 1.953 0 000 2.762zm24.246-27.008v-9.48l13.31-13.31v9.48l-13.31 13.31zm12.228 2.748h-9.452l13.31-13.31h9.451l-13.31 13.31zm-64.13 51.838a1.967 1.967 0 00-1.38-.573 1.96 1.96 0 00-1.382.573 1.96 1.96 0 00-.572 1.38c0 .514.207 1.018.572 1.381.364.363.865.572 1.381.572.514 0 1.018-.209 1.38-.572.364-.363.573-.867.573-1.38a1.97 1.97 0 00-.572-1.381z"/></g><defs><clipPath id="clip0"><path fill="#fff" d="M0 0h100v100H0z"/></clipPath></defs></svg>