<svg width="115" height="105" fill="none" xmlns="http://www.w3.org/2000/svg"><circle cx="65.5" cy="55.5" r="49.5" fill="#F5AE24"/><path d="M98.535 90.756h-6.033V67.902a1.465 1.465 0 00-2.93 0v22.854H76.72v-50.34h12.853v20.65a1.465 1.465 0 102.93 0V38.951c0-.809-.656-1.465-1.465-1.465H75.254c-.81 0-1.465.656-1.465 1.465v51.805h-3.383V46.843c0-.809-.656-1.465-1.465-1.465H53.157c-.81 0-1.465.656-1.465 1.465v43.913h-3.384V58.68c0-.809-.656-1.465-1.465-1.465H31.06c-.81 0-1.465.656-1.465 1.465v32.075H26.21V68.15c0-.809-.656-1.465-1.465-1.465H8.962c-.809 0-1.465.656-1.465 1.465v22.605H1.465c-.81 0-1.465.656-1.465 1.465v6.314C0 99.345.656 100 1.465 100h15.82a1.465 1.465 0 000-2.93H2.93v-3.384h94.14v3.384H24.121a1.465 1.465 0 000 2.93h74.414c.81 0 1.465-.656 1.465-1.465v-6.314c0-.81-.656-1.465-1.465-1.465zM54.622 48.308h12.854v42.448H54.622V48.308zM32.524 60.146h12.854v30.61H32.524v-30.61zm-22.097 9.47h12.854v21.14H10.427v-21.14zM8.766 53.438h22.293a4.633 4.633 0 003.408-1.499l18.158-19.81h12.37c1.234 0 2.395-.48 3.267-1.353L83.26 15.778v4.628c0 .809.656 1.465 1.465 1.465h6.312c.81 0 1.465-.656 1.465-1.465V4.621A4.626 4.626 0 0087.88 0H72.098c-.81 0-1.465.656-1.465 1.465v6.314c0 .81.656 1.465 1.465 1.465h4.625L63.081 22.887H50.59a4.63 4.63 0 00-3.405 1.498l-18.16 19.81h-4.04a1.465 1.465 0 000 2.93h4.684c.41 0 .802-.172 1.08-.475l18.596-20.285a1.69 1.69 0 011.246-.548h13.095c.389 0 .761-.155 1.036-.43L81.295 8.816a1.465 1.465 0 00-1.035-2.5h-6.698V2.93h14.319c.932 0 1.691.758 1.691 1.691v14.32H86.19v-6.699a1.465 1.465 0 00-2.5-1.036l-17.5 17.498a1.68 1.68 0 01-1.197.495H51.98c-.41 0-.802.172-1.08.475L32.308 49.96c-.32.348-.774.548-1.248.548H10.23v-3.383h7.92a1.465 1.465 0 000-2.93H8.766c-.81 0-1.465.656-1.465 1.465v6.313c0 .809.656 1.465 1.465 1.465z" fill="#222"/></svg>