<svg width="112" height="105" fill="none" xmlns="http://www.w3.org/2000/svg"><circle cx="62.5" cy="55.5" r="49.5" fill="#00A85A"/><path d="M89.052 65.955A41.855 41.855 0 0092.187 50c0-21.44-16.357-39.583-37.5-41.93V1.562l-8.58 6.436C24.594 9.973 7.812 28.327 7.812 50c0 1.752.13 3.508.346 5.24-4.007 3.15-6.597 8.029-6.597 13.51 0 6.662 3.82 12.44 9.376 15.29v6.585a4.693 4.693 0 004.687 4.688h6.25a4.693 4.693 0 004.688-4.688v-5.58c6.945 4.66 14.996 7.142 23.437 7.142h18.002c3.154 3.815 7.921 6.25 13.248 6.25 9.477 0 17.188-7.71 17.188-17.187 0-6.667-3.824-12.445-9.386-15.295zM53.008 11.052C73.225 12.589 89.062 29.698 89.062 50c0 5.131-.985 10.095-2.907 14.784a17.12 17.12 0 00-4.905-.722c-.56 0-1.112.032-1.658.085A32.774 32.774 0 0082.812 50c0-16.942-12.696-30.98-29.532-32.65l-1.718-.17v3.133l-8.332-6.25 8.333-6.25v3.128l1.445.11zm11.134 68.635H50a29.52 29.52 0 01-15.39-4.318 17.106 17.106 0 001.328-6.619c0-.528-.033-1.047-.08-1.563h31.33v-31.25h-9.376v28.126h-3.124V42.186h-9.376v21.876h-3.124V48.437h-9.376v10.461c-2.815-4.006-7.287-6.764-12.418-7.253-.03-.55-.081-1.098-.081-1.645 0-15.225 11.28-27.786 26.321-29.478l8.053 6.04v-5.884c14.37 2.261 25 14.575 25 29.322 0 5.31-1.424 10.495-4.101 15.042-6.227 2.183-10.828 7.84-11.444 14.645zM35.938 64.064v-12.5h3.124v12.5h-3.124zm15.624 0h-3.124v-18.75h3.124v18.75zm9.376 0v-25h3.124v25h-3.124zM10.938 50c0-18.1 12.642-33.697 29.732-37.925l-2.65 1.988 5.142 3.857C28.123 21.07 17.189 34.244 17.189 50c0 .544.053 1.09.08 1.638-2.202.189-4.282.8-6.17 1.745a39.497 39.497 0 01-.16-3.383zm-6.25 18.75c0-7.753 6.309-14.063 14.062-14.063 7.753 0 14.063 6.31 14.063 14.063 0 6.108-3.922 11.305-9.376 13.242V71.588a4.639 4.639 0 001.563.287 4.693 4.693 0 004.688-4.688A4.693 4.693 0 0025 62.5c-2.034 0-3.753 1.31-4.4 3.125h-3.702c-.645-1.814-2.364-3.125-4.398-3.125a4.693 4.693 0 00-4.688 4.688 4.693 4.693 0 004.688 4.687c.55 0 1.072-.112 1.563-.287v10.404c-5.454-1.937-9.376-7.134-9.376-13.242zm12.5 0h3.125v13.97c-.515.058-1.035.093-1.563.093s-1.048-.035-1.563-.093V68.75zm6.25-1.563c0-.86.701-1.562 1.562-1.562.86 0 1.563.702 1.563 1.563 0 .86-.702 1.562-1.563 1.562-.86 0-1.563-.702-1.563-1.563zm-9.375 0c0 .861-.702 1.563-1.563 1.563-.86 0-1.563-.702-1.563-1.563 0-.86.702-1.562 1.563-1.562.86 0 1.563.702 1.563 1.563zm7.812 25h-6.25c-.86 0-1.563-.701-1.563-1.562v-5.353c1.493.423 3.061.665 4.688.665 1.627 0 3.195-.242 4.688-.665v5.353c0 .86-.702 1.563-1.563 1.563zM50 89.064a38.717 38.717 0 01-21.29-6.333 17.337 17.337 0 004.424-4.602A32.642 32.642 0 0050 82.812h14.142c.203 2.235.84 4.343 1.819 6.25H50zm23.544 3.935l.475-3.803a7.298 7.298 0 017.231-6.382 7.298 7.298 0 017.231 6.382l.475 3.803a13.96 13.96 0 01-7.706 2.314 13.96 13.96 0 01-7.706-2.314zm4.581-16.436a3.128 3.128 0 013.125-3.124 3.128 3.128 0 013.125 3.124 3.128 3.128 0 01-3.125 3.126 3.128 3.128 0 01-3.125-3.126zm13.67 13.96l-.214-1.713a10.425 10.425 0 00-5.734-8.046c1.017-1.113 1.653-2.579 1.653-4.2a6.256 6.256 0 00-6.25-6.25 6.256 6.256 0 00-6.25 6.25c0 1.621.636 3.087 1.652 4.198a10.428 10.428 0 00-5.735 8.047l-.214 1.712c-2.18-2.476-3.516-5.717-3.516-9.27 0-7.753 6.31-14.063 14.063-14.063 7.753 0 14.063 6.31 14.063 14.063 0 3.553-1.336 6.794-3.518 9.272z" fill="#222"/></svg>