<svg width="115" height="105" fill="none" xmlns="http://www.w3.org/2000/svg"><circle cx="65.5" cy="55.5" r="49.5" fill="#41F2FD"/><path d="M25.503 97.464a8.705 8.705 0 01-8.701-8.69v-68.91a1.35 1.35 0 112.702 0v68.91a6 6 0 0011.999 0V82.33a1.352 1.352 0 011.351-1.352h53.54V11.574a6.007 6.007 0 00-6-6h-70.29a1.351 1.351 0 010-2.702h70.292a8.712 8.712 0 018.702 8.702V82.33a1.351 1.351 0 01-1.35 1.35H34.205v5.095a8.706 8.706 0 01-8.703 8.69z" fill="#222"/><path d="M87.242 97.466H25.506a1.35 1.35 0 110-2.703 6 6 0 006-5.986v-6.446a1.351 1.351 0 011.351-1.351h61.722a1.352 1.352 0 011.351 1.351v6.446a8.698 8.698 0 01-8.688 8.69zm-55.434-2.703h55.434a5.992 5.992 0 005.985-5.986v-5.095H34.208v5.095a8.65 8.65 0 01-2.4 5.986zM44.62 73.255a1.352 1.352 0 01-1.197-.722l-1.976-3.764-4.046 1.293a1.352 1.352 0 01-1.655-1.819l5.766-13.504A1.352 1.352 0 0144 55.8l-4.607 10.788 2.312-.738a1.352 1.352 0 011.61.658l1.178 2.245 4.943-11.622a1.352 1.352 0 112.487 1.057l-6.06 14.245a1.352 1.352 0 01-1.186.821l-.056.001zm15.234 0h-.055a1.352 1.352 0 01-1.19-.821l-6.041-14.25a1.352 1.352 0 112.489-1.057l4.93 11.622 1.178-2.242a1.35 1.35 0 011.608-.658l2.31.737-4.602-10.758a1.35 1.35 0 112.484-1.063l5.76 13.478a1.351 1.351 0 01-1.652 1.82l-4.046-1.294-1.976 3.763a1.352 1.352 0 01-1.197.723z" fill="#222"/><path d="M52.243 59.71a3.295 3.295 0 01-2.027-.696l-2.155-1.677a.635.635 0 00-.446-.12l-2.703.376a3.287 3.287 0 01-3.513-2.027l-1.023-2.525a.605.605 0 00-.33-.338L37.52 51.68a3.292 3.292 0 01-2.027-3.514l.375-2.702a.585.585 0 00-.12-.448l-1.678-2.162a3.293 3.293 0 010-4.054l1.675-2.162a.596.596 0 00.121-.449l-.374-2.702a3.292 3.292 0 012.027-3.514l2.527-1.024a.589.589 0 00.328-.329l1.025-2.527a3.289 3.289 0 013.513-2.027l2.703.376a.593.593 0 00.449-.122l2.154-1.675a3.298 3.298 0 014.054 0l2.155 1.677a.592.592 0 00.449.12l2.702-.376a3.292 3.292 0 013.514 2.027l1.023 2.527a.602.602 0 00.331.33l2.526 1.023a3.296 3.296 0 012.027 3.514l-.376 2.702a.61.61 0 00.12.448l1.676 2.162a3.29 3.29 0 010 4.054l-1.677 2.155a.608.608 0 00-.119.447l.376 2.703a3.296 3.296 0 01-2.027 3.514l-2.533 1.03a.606.606 0 00-.33.33l-1.022 2.526a3.296 3.296 0 01-3.514 2.027l-2.703-.376a.611.611 0 00-.448.12l-2.154 1.676a3.29 3.29 0 01-2.025.706zm-4.552-5.2a3.327 3.327 0 012.027.693l2.162 1.678a.599.599 0 00.732 0l2.154-1.677a3.319 3.319 0 012.481-.663l2.703.374a.578.578 0 00.635-.366l1.023-2.527a3.316 3.316 0 011.822-1.82l2.527-1.024a.596.596 0 00.366-.635l-.374-2.702a3.315 3.315 0 01.66-2.477l1.679-2.163a.595.595 0 000-.73l-1.676-2.163a3.313 3.313 0 01-.666-2.47l.374-2.703a.595.595 0 00-.366-.635l-2.527-1.024a3.312 3.312 0 01-1.82-1.82l-1.024-2.526a.59.59 0 00-.636-.368l-2.702.376a3.31 3.31 0 01-2.479-.664l-2.162-1.677a.594.594 0 00-.732 0l-2.163 1.676a3.339 3.339 0 01-2.478.665l-2.703-.376a.598.598 0 00-.635.368l-1.024 2.527a3.315 3.315 0 01-1.819 1.819l-2.527 1.023a.598.598 0 00-.368.635l.376 2.703a3.309 3.309 0 01-.666 2.48l-1.662 2.156a.595.595 0 000 .733l1.677 2.162a3.315 3.315 0 01.663 2.478l-.375 2.703a.596.596 0 00.367.635l2.527 1.024a3.316 3.316 0 011.82 1.82l1.023 2.528a.6.6 0 00.634.366l2.703-.375a3.37 3.37 0 01.449-.037z" fill="#222"/><path d="M52.243 59.71a3.295 3.295 0 01-2.027-.696l-2.155-1.677a.635.635 0 00-.446-.12l-2.703.376a3.287 3.287 0 01-3.513-2.027l-1.023-2.525a.605.605 0 00-.33-.338L37.52 51.68a3.292 3.292 0 01-2.027-3.514l.375-2.702a.585.585 0 00-.12-.448l-1.678-2.162a3.293 3.293 0 010-4.054l1.675-2.162a.596.596 0 00.121-.449l-.374-2.702a3.292 3.292 0 012.027-3.514l2.527-1.024a.589.589 0 00.328-.329l1.025-2.527a3.289 3.289 0 013.513-2.027l2.703.376a.593.593 0 00.449-.122l2.154-1.675a3.298 3.298 0 014.054 0l2.155 1.677a.592.592 0 00.449.12l2.702-.376a3.292 3.292 0 013.514 2.027l1.023 2.527a.602.602 0 00.331.33l2.526 1.023a3.296 3.296 0 012.027 3.514l-.376 2.702a.61.61 0 00.12.448l1.676 2.162a3.29 3.29 0 010 4.054l-1.677 2.155a.608.608 0 00-.119.447l.376 2.703a3.296 3.296 0 01-2.027 3.514l-2.533 1.03a.606.606 0 00-.33.33l-1.022 2.526a3.296 3.296 0 01-3.514 2.027l-2.703-.376a.611.611 0 00-.448.12l-2.154 1.676a3.29 3.29 0 01-2.025.706zm-4.552-5.2a3.327 3.327 0 012.027.693l2.162 1.678a.599.599 0 00.732 0l2.154-1.677a3.319 3.319 0 012.481-.663l2.703.374a.578.578 0 00.635-.366l1.023-2.527a3.316 3.316 0 011.822-1.82l2.527-1.024a.596.596 0 00.366-.635l-.374-2.702a3.315 3.315 0 01.66-2.477l1.679-2.163a.595.595 0 000-.73l-1.676-2.163a3.313 3.313 0 01-.666-2.47l.374-2.703a.595.595 0 00-.366-.635l-2.527-1.024a3.312 3.312 0 01-1.82-1.82l-1.024-2.526a.59.59 0 00-.636-.368l-2.702.376a3.31 3.31 0 01-2.479-.664l-2.162-1.677a.594.594 0 00-.732 0l-2.163 1.676a3.339 3.339 0 01-2.478.665l-2.703-.376a.598.598 0 00-.635.368l-1.024 2.527a3.315 3.315 0 01-1.819 1.819l-2.527 1.023a.598.598 0 00-.368.635l.376 2.703a3.309 3.309 0 01-.666 2.48l-1.662 2.156a.595.595 0 000 .733l1.677 2.162a3.315 3.315 0 01.663 2.478l-.375 2.703a.596.596 0 00.367.635l2.527 1.024a3.316 3.316 0 011.82 1.82l1.023 2.528a.6.6 0 00.634.366l2.703-.375a3.37 3.37 0 01.449-.037z" fill="#222"/><path d="M47.449 49.568a1.351 1.351 0 01-1.331-1.58l.794-4.638-3.369-3.285a1.351 1.351 0 01.75-2.297l4.656-.676 2.082-4.219a1.407 1.407 0 012.423 0l2.087 4.21 4.655.677a1.35 1.35 0 01.75 2.305l-3.378 3.285.794 4.638a1.351 1.351 0 01-1.96 1.424l-4.165-2.189-4.164 2.19a1.351 1.351 0 01-.624.155zm4.793-5.223c.219 0 .435.053.628.155l2.372 1.247-.453-2.639a1.35 1.35 0 01.388-1.196l1.92-1.869-2.65-.385a1.351 1.351 0 01-1.019-.74l-1.186-2.402-1.185 2.403a1.35 1.35 0 01-1.018.74l-2.65.386 1.918 1.868a1.352 1.352 0 01.388 1.197l-.452 2.64 2.37-1.247a1.37 1.37 0 01.63-.158zM18.174 21.216H3.473a1.351 1.351 0 01-1.351-1.351V11.56a8.703 8.703 0 0117.404 0v8.304a1.35 1.35 0 01-1.352 1.351zm-13.35-2.703h11.999v-6.952a6 6 0 00-11.999 0v6.953z" fill="#222"/></svg>