<svg width="82" height="82" fill="none" xmlns="http://www.w3.org/2000/svg"><g clip-path="url(#clip0)" fill="#222"><path d="M76.555 17.052h-3.207l.004-5.732a6.987 6.987 0 00-6.976-6.982l-24.334-.014h-.003a5.15 5.15 0 00-3.667 1.52L2.044 42.17A6.933 6.933 0 000 47.106c0 1.864.726 3.617 2.044 4.935l23.575 23.575a6.957 6.957 0 004.935 2.041 6.96 6.96 0 004.936-2.04l22.872-22.873a1.601 1.601 0 10-2.265-2.265L33.224 73.352a3.78 3.78 0 01-5.34 0L4.31 49.776a3.752 3.752 0 01-1.106-2.67c0-1.009.393-1.957 1.106-2.67L40.637 8.109a1.97 1.97 0 011.402-.582h.001l24.334.014a3.78 3.78 0 013.774 3.778l-.007 13.42h-7.214a2.236 2.236 0 01-1.59-.662 5.872 5.872 0 001.844-1.249 5.91 5.91 0 000-8.348 5.91 5.91 0 00-8.35 0 5.91 5.91 0 000 8.348 5.871 5.871 0 003.01 1.61 5.454 5.454 0 005.086 3.505h7.212l-.004 7.677c0 .53-.207 1.028-.582 1.402l-4.396 4.397a1.602 1.602 0 002.264 2.266l4.398-4.398a5.154 5.154 0 001.519-3.665l.004-7.68h3.213A5.451 5.451 0 0082 22.499a5.452 5.452 0 00-5.445-5.446zm-19.458-.308a2.691 2.691 0 011.91-.79c.691 0 1.383.264 1.91.79.166.168.303.352.417.547a5.467 5.467 0 00-3.644 3.718 2.68 2.68 0 01-.593-.445 2.704 2.704 0 010-3.82zm19.458 7.996h-3.21l.002-4.485h3.208a2.245 2.245 0 012.242 2.243 2.245 2.245 0 01-2.242 2.242z"/><path d="M25.851 44.732a1.601 1.601 0 001.972 1.114l16.441-4.576a1.602 1.602 0 00-.859-3.086L26.964 42.76a1.602 1.602 0 00-1.113 1.972zm7.237 2.114a4.691 4.691 0 00-1.383 3.34 4.69 4.69 0 001.383 3.338 4.71 4.71 0 003.34 1.38 4.71 4.71 0 003.339-1.38 4.728 4.728 0 000-6.678 4.728 4.728 0 00-6.679 0zm4.413 4.413a1.52 1.52 0 01-2.593-1.074 1.517 1.517 0 012.593-1.074 1.52 1.52 0 010 2.148zM40.56 37.31a4.728 4.728 0 000-6.678 4.692 4.692 0 00-3.34-1.384 4.689 4.689 0 00-3.338 1.384 4.728 4.728 0 000 6.678c.92.92 2.13 1.38 3.339 1.38a4.71 4.71 0 003.34-1.38zm-4.413-4.413a1.509 1.509 0 011.074-.445 1.52 1.52 0 011.074 2.593 1.52 1.52 0 01-2.148 0 1.522 1.522 0 010-2.148z"/><path d="M15.93 41.423a1.602 1.602 0 00-2.266 0l-4.55 4.55a1.602 1.602 0 000 2.265l20.309 20.31c.312.312.723.468 1.132.468.41 0 .82-.156 1.133-.469l30.364-30.365a1.602 1.602 0 000-2.265L41.744 15.608a1.602 1.602 0 00-2.265 0L22.724 32.363a1.602 1.602 0 002.265 2.265l15.622-15.622L58.655 37.05l-28.1 28.1-18.044-18.044 3.419-3.418a1.602 1.602 0 000-2.265zm45.83 4.057a1.61 1.61 0 00-1.133.47c-.297.297-.469.71-.469 1.131 0 .422.172.835.47 1.133.297.298.71.47 1.132.47.42 0 .834-.172 1.132-.47.298-.298.47-.711.47-1.133 0-.42-.172-.834-.47-1.132a1.615 1.615 0 00-1.132-.469z"/><path d="M20.458 39.157a1.603 1.603 0 000-2.265 1.61 1.61 0 00-1.132-.469 1.608 1.608 0 00-1.602 1.602 1.607 1.607 0 001.602 1.601c.422 0 .834-.17 1.132-.469z"/></g><defs><clipPath id="clip0"><path fill="#fff" d="M0 0h82v82H0z"/></clipPath></defs></svg>