<svg width="82" height="82" fill="none" xmlns="http://www.w3.org/2000/svg"><path d="M72.602 31.184H51.89a1.201 1.201 0 100 2.402h20.712a1.201 1.201 0 100-2.402zm0 7.241H51.89a1.201 1.201 0 000 2.402h20.712a1.201 1.201 0 100-2.402zm1.201 8.442a1.2 1.2 0 00-1.2-1.2H51.89a1.201 1.201 0 100 2.401h20.711a1.2 1.2 0 001.201-1.2zm-21.913 6.04a1.201 1.201 0 000 2.402h10.356a1.201 1.201 0 100-2.402H51.891z" fill="#222"/><path d="M79.857 14.124L67.474 1.741A5.943 5.943 0 0063.27 0H22.52a5.95 5.95 0 00-5.943 5.943V18.24a1.201 1.201 0 002.402 0V5.943a3.544 3.544 0 013.541-3.54h40.75c.26 0 .514.027.763.082v10.938a4.145 4.145 0 004.14 4.14h10.938c.055.251.083.508.083.764v57.73a3.545 3.545 0 01-3.54 3.541H59.519a5.415 5.415 0 00-.672-6.826l-10.92-10.92a2.805 2.805 0 00-2.946-.647l-2.351-2.351c6.633-9.211 5.655-21.956-2.457-30.068-9.003-9.002-23.774-9.182-32.956 0-9.086 9.086-9.086 23.87 0 32.956 8.105 8.105 20.861 9.069 30.066 2.456l2.352 2.352a2.805 2.805 0 00.647 2.947l10.101 10.101H22.521a3.545 3.545 0 01-3.54-3.54v-3.85a1.201 1.201 0 00-2.403 0v3.85A5.95 5.95 0 0022.521 82h53.134a5.95 5.95 0 005.943-5.943v-57.73c0-1.56-.619-3.081-1.741-4.203zM8.916 60.044c-8.15-8.15-8.15-21.41 0-29.56 8.253-8.252 21.499-8.059 29.558 0 7.505 7.505 8.204 19.428 1.626 27.734a21.207 21.207 0 01-3.45 3.452c-8.254 6.534-20.207 5.901-27.734-1.626zm30.259 2.64a23.646 23.646 0 001.944-1.944l1.978 1.977-1.949 1.95-1.978-1.979.005-.004zM52.9 78.718l-10.92-10.92a.402.402 0 010-.568l.015-.016h.001l3.664-3.664a.402.402 0 01.568 0l10.92 10.92a3.007 3.007 0 010 4.248 3.002 3.002 0 01-4.248 0zm13.535-65.295V4.1l11.06 11.06h-9.321a1.74 1.74 0 01-1.739-1.738z" fill="#222"/><path d="M50.508 7.794H26.68a2.586 2.586 0 00-2.583 2.583v4.603a2.586 2.586 0 002.583 2.584h23.83a2.586 2.586 0 002.583-2.584v-4.603a2.586 2.586 0 00-2.584-2.583zm.181 7.186c0 .1-.081.181-.181.181H26.679a.181.181 0 01-.181-.18v-4.604c0-.1.081-.181.181-.181h23.83c.1 0 .18.081.18.18v4.604zM36.786 58.355c7.218-7.218 7.218-18.963 0-26.182-7.219-7.219-18.964-7.219-26.183 0A18.371 18.371 0 005.395 42.45a1.201 1.201 0 102.374.363 15.986 15.986 0 014.533-8.942c6.282-6.281 16.503-6.281 22.785 0 6.027 6.028 6.27 15.681.731 22.003a5.195 5.195 0 00-2.598-2.465c-1.423-.626-3.876-1.024-5.385-1.223l-.006-1.517a7.047 7.047 0 002.79-4.568c.257-.106.492-.264.693-.467.403-.405.622-.942.618-1.512-.01-1.592-.01-4.23-.01-5.767a2.95 2.95 0 00-2.445-2.902 2.949 2.949 0 00-2.889-2.374h-5.798a5.427 5.427 0 00-5.42 5.421v5.644c0 .877.534 1.63 1.295 1.952a7.065 7.065 0 002.663 4.47l.007 1.656c-1.507.211-3.957.63-5.375 1.268a5.066 5.066 0 00-2.44 2.324 15.983 15.983 0 01-3.695-7.773 1.201 1.201 0 00-2.367.412 18.399 18.399 0 005.148 9.902c7.25 7.25 18.995 7.187 26.182 0zM20.788 35.482h5.799c.298 0 .541.243.541.542 0 .987.803 1.79 1.79 1.79h.059c.299 0 .542.243.542.541V39l-1.452-.136a6.696 6.696 0 00-4.095.95 4.249 4.249 0 01-2.22.626H17.77V38.5a3.022 3.022 0 013.018-3.018zm-3.018 8.406v-1.046h3.982a6.65 6.65 0 003.475-.98 4.276 4.276 0 012.616-.607l1.677.157c0 .74.002 1.716.006 2.471a1.491 1.491 0 00-1.23 1.38 4.66 4.66 0 01-4.652 4.38 4.675 4.675 0 01-4.66-4.377 1.502 1.502 0 00-1.214-1.378zm5.874 8.157c.617 0 1.216-.082 1.788-.231l.003.67c0 .31.072.607.198.873a3.668 3.668 0 01-2.046.628h-.011a3.67 3.67 0 01-2.032-.61 2.06 2.06 0 00.192-.876l-.003-.718c.609.172 1.25.264 1.911.264zM13.4 57.657c.174-.879.735-1.611 1.544-1.976.818-.368 2.391-.737 4.373-1.03a6.055 6.055 0 004.258 1.736h.019a6.055 6.055 0 004.276-1.772c1.985.276 3.562.632 4.382.993.92.405 1.514 1.175 1.66 2.114-5.945 4.882-14.592 4.86-20.512-.065z" fill="#222"/></svg>