<svg width="82" height="82" fill="none" xmlns="http://www.w3.org/2000/svg"><path d="M41 41.106c-21.61 0-39.19 17.58-39.19 39.19a1.705 1.705 0 003.408 0c0-19.732 16.05-35.783 35.782-35.783 19.732 0 35.783 16.052 35.783 35.783a1.705 1.705 0 003.408 0c0-21.613-17.582-39.19-39.191-39.19zM41 0C30.667 0 22.257 8.407 22.257 18.743c0 10.336 8.41 18.743 18.743 18.743 10.333 0 18.743-8.407 18.743-18.743C59.743 8.407 51.333 0 41 0zm0 34.079c-8.455 0-15.335-6.88-15.335-15.336 0-8.455 6.88-15.335 15.335-15.335 8.455 0 15.335 6.88 15.335 15.335 0 8.455-6.88 15.336-15.335 15.336z" fill="#222"/></svg>