<svg width="82" height="82" fill="none" xmlns="http://www.w3.org/2000/svg"><g clip-path="url(#clip0)" fill="#222"><path d="M76.533 47.15a3.42 3.42 0 00-3.416-3.417H69.7v-5.466h-2.733v5.466h-2.734v-5.466H61.5v5.466h-2.733v-5.466h-2.734v5.466H53.3v-5.466h-2.733v5.466H47.15a3.42 3.42 0 00-3.417 3.417v3.417h-5.466V53.3h5.466v2.733h-5.466v2.734h5.466V61.5h-5.466v2.733h5.466v2.734h-5.466V69.7h5.466v3.417a3.42 3.42 0 003.417 3.416h3.417V82H53.3v-5.467h2.733V82h2.734v-5.467H61.5V82h2.733v-5.467h2.734V82H69.7v-5.467h3.417a3.42 3.42 0 003.416-3.416V69.7H82v-2.733h-5.467v-2.734H82V61.5h-5.467v-2.733H82v-2.734h-5.467V53.3H82v-2.733h-5.467V47.15zM73.8 73.117a.684.684 0 01-.683.683H47.15a.684.684 0 01-.683-.683V47.15c0-.377.306-.683.683-.683h25.967c.377 0 .683.306.683.683v25.967zm-71.067 6.15h2.734V82H2.733v-2.733zm10.25-60.134c.377 0 .683.307.683.684V24.6a2.736 2.736 0 00-2.733 2.733v2.734a2.736 2.736 0 002.733 2.733H16.4a2.736 2.736 0 002.733-2.733v-2.734A2.736 2.736 0 0016.4 24.6v-4.783a3.42 3.42 0 00-3.417-3.417.684.684 0 01-.683-.683V5.467H9.566v10.25a3.42 3.42 0 003.417 3.416zm3.417 8.2v2.734h-2.734v-2.734H16.4zM9.566 0H12.3v2.733H9.566V0zM2.733 0h2.734v2.733H2.733V0zm0 50.567v25.966h2.734V50.567A2.736 2.736 0 008.2 47.833V45.1a2.736 2.736 0 00-2.733-2.733H2.733A2.736 2.736 0 000 45.1v2.733a2.736 2.736 0 002.733 2.734zm0-5.467h2.734v2.733H2.733V45.1zm0-5.467h2.734A2.736 2.736 0 008.2 36.9v-2.733a2.736 2.736 0 00-2.733-2.734V5.467H2.733v25.966A2.736 2.736 0 000 34.167V36.9a2.736 2.736 0 002.733 2.733zm0-5.466h2.734V36.9H2.733v-2.733zm8.201 41.683a3.42 3.42 0 003.416 3.417H24.6A2.736 2.736 0 0027.334 82h2.733a2.736 2.736 0 002.733-2.733v-2.734a2.736 2.736 0 00-2.733-2.733h-2.733a2.736 2.736 0 00-2.734 2.733H14.35a.684.684 0 01-.683-.683v-4.1c0-.377.306-.683.683-.683h12.984v-2.734H14.35a3.42 3.42 0 00-3.416 3.417v4.1zm16.4.683h2.733v2.734h-2.733v-2.734zm2.732-8.2H32.8v2.734h-2.734v-2.734zm-19.132-5.466a2.736 2.736 0 002.733 2.733H16.4a2.736 2.736 0 002.734-2.733h10.25A3.42 3.42 0 0032.8 59.45v-4.1a3.42 3.42 0 00-3.416-3.417H16.4v2.734h12.984c.377 0 .683.306.683.683v4.1a.684.684 0 01-.683.683h-10.25A2.736 2.736 0 0016.4 57.4h-2.733a2.736 2.736 0 00-2.733 2.733v2.734zm2.733-2.734H16.4v2.734h-2.733v-2.734zm-2.733-8.2h2.733v2.734h-2.733v-2.734zM12.3 38.95v4.1a3.42 3.42 0 003.416 3.417H24.6a2.736 2.736 0 002.733 2.733h2.734a2.736 2.736 0 002.733-2.733v-2.734A2.736 2.736 0 0030.067 41h-2.734a2.736 2.736 0 00-2.733 2.733h-8.884a.684.684 0 01-.683-.683v-4.1c0-.377.306-.683.684-.683h11.616v-2.734H15.717A3.42 3.42 0 0012.3 38.95zm15.033 4.783h2.734v2.734h-2.734l-.002-2.734h.002zm2.733-8.2H32.8v2.734h-2.734v-2.734zm-8.2-5.466H24.6V32.8h-2.733v-2.733zm-3.416-16.4h2.733c.377 0 .683.306.683.683v12.983H24.6V14.35a3.42 3.42 0 00-3.417-3.417H18.45a.684.684 0 01-.683-.683v-4.1c0-.377.306-.683.683-.683h4.783A2.736 2.736 0 0025.966 8.2H28.7a2.736 2.736 0 002.733-2.733V2.733A2.736 2.736 0 0028.7 0h-2.733a2.736 2.736 0 00-2.734 2.733H18.45a3.42 3.42 0 00-3.417 3.417v4.1a3.42 3.42 0 003.417 3.417zm7.517-10.934H28.7l.002 2.734h-2.736V2.733zM41 21.183c0-.377.306-.683.683-.683a3.42 3.42 0 003.417-3.417V8.2a2.736 2.736 0 002.733-2.733V2.733A2.736 2.736 0 0045.1 0h-2.733a2.736 2.736 0 00-2.734 2.733v2.734A2.736 2.736 0 0042.367 8.2v8.883a.684.684 0 01-.684.684 3.42 3.42 0 00-3.416 3.416v6.15H41v-6.15zm1.367-18.45H45.1v2.734h-2.733V2.733zm-4.1 27.334H41V32.8h-2.733v-2.733zM30.066 14.35V24.6a2.736 2.736 0 00-2.733 2.733v2.734a2.736 2.736 0 002.733 2.733H32.8a2.736 2.736 0 002.733-2.733v-2.734A2.736 2.736 0 0032.8 24.6V14.35c0-.377.306-.683.683-.683A3.42 3.42 0 0036.9 10.25V5.467h-2.734v4.783a.684.684 0 01-.683.683 3.42 3.42 0 00-3.417 3.417zM32.8 30.067h-2.734v-2.734H32.8v2.734zM34.167 0H36.9v2.733h-2.733V0zm45.099 24.6v-9.567h-2.733V24.6a2.736 2.736 0 00-2.733 2.733v2.734a2.736 2.736 0 002.733 2.733h2.733A2.736 2.736 0 0082 30.067v-2.734a2.736 2.736 0 00-2.734-2.733zm0 5.467h-2.733l-.002-2.734h2.735v2.734zm-2.733-20.5h2.733V12.3h-2.733V9.567zm-8.2 17.083a.684.684 0 01-.683.683H51.933A2.736 2.736 0 0049.2 24.6h-2.733a2.736 2.736 0 00-2.734 2.733v2.734a2.736 2.736 0 002.734 2.733H49.2a2.736 2.736 0 002.733-2.733H67.65a3.42 3.42 0 003.417-3.417V15.033h-2.734V26.65zm-21.866 3.417v-2.734H49.2l.002 2.734h-2.735zm21.866-20.5h2.733V12.3h-2.733V9.567z"/><path d="M47.833 18.45a3.42 3.42 0 003.417 3.417h6.15a2.736 2.736 0 002.733 2.733h2.733a2.736 2.736 0 002.734-2.733v-2.734a2.736 2.736 0 00-2.734-2.733h-2.733a2.736 2.736 0 00-2.733 2.733h-6.15a.684.684 0 01-.684-.683v-4.1c0-.377.307-.683.684-.683a3.42 3.42 0 003.416-3.417V5.467h-2.733v4.783a.684.684 0 01-.683.683 3.42 3.42 0 00-3.417 3.417v4.1zm12.3.683h2.733v2.734h-2.733l-.002-2.734h.002zM51.934 0h2.733v2.733h-2.733V0zm27.333 0h-2.733A2.736 2.736 0 0073.8 2.733H63.55a3.42 3.42 0 00-3.416 3.417V8.2h2.733V6.15c0-.377.306-.683.684-.683H73.8A2.736 2.736 0 0076.533 8.2h2.733A2.736 2.736 0 0082 5.467V2.733A2.736 2.736 0 0079.267 0zm-2.733 5.467V2.733h2.733l.002 2.734h-2.735z"/><path d="M60.134 10.933h2.733v2.734h-2.733v-2.734z"/></g><defs><clipPath id="clip0"><path fill="#fff" d="M0 0h82v82H0z"/></clipPath></defs></svg>