<svg width="82" height="82" fill="none" xmlns="http://www.w3.org/2000/svg"><path d="M19.828 55.333c-.016.008-1.599.852-3.412.852-1.81 0-3.385-.837-3.415-.854a1.2 1.2 0 00-1.155 2.107c.085.047 2.117 1.15 4.57 1.15 2.453 0 4.485-1.103 4.57-1.15a1.202 1.202 0 00-1.159-2.105zm-4.504-4.007a1.202 1.202 0 11-2.403-.001 1.202 1.202 0 012.403 0zm4.586 0a1.201 1.201 0 11-2.402 0 1.201 1.201 0 012.402 0z" fill="#222"/><path d="M78.424 69.224a1.201 1.201 0 00-2.13 1.11 12.112 12.112 0 011.382 5.66v.02a3.588 3.588 0 01-3.585 3.584H56.756c-.711 0-1.4-.213-1.982-.6.508-.879.8-1.898.8-2.985v-.019a14.56 14.56 0 00-1.085-5.53 12.285 12.285 0 0110.935-6.722c2.935 0 5.773 1.053 7.992 2.965a1.201 1.201 0 001.568-1.82 14.626 14.626 0 00-4.373-2.597 10.012 10.012 0 004.823-8.558c0-5.52-4.491-10.01-10.01-10.01-5.52 0-10.01 4.49-10.01 10.01 0 3.623 1.934 6.803 4.825 8.56a14.714 14.714 0 00-7.07 5.667 14.732 14.732 0 00-7.06-5.67 10.013 10.013 0 004.82-8.557c0-5.52-4.49-10.01-10.01-10.01-5.518 0-10.009 4.49-10.009 10.01 0 3.621 1.933 6.8 4.822 8.557a14.736 14.736 0 00-7.061 5.671 14.63 14.63 0 00-1.892-2.328 14.605 14.605 0 00-5.17-3.346 10.013 10.013 0 004.817-8.554c0-5.52-4.49-10.01-10.01-10.01s-10.01 4.49-10.01 10.01c0 3.62 1.932 6.798 4.819 8.556a14.616 14.616 0 00-5.045 3.219 1.202 1.202 0 001.678 1.72 12.186 12.186 0 018.558-3.485c3.273 0 6.35 1.275 8.664 3.588a12.228 12.228 0 012.27 3.133 14.574 14.574 0 00-1.084 5.531v.02c0 1.086.292 2.105.8 2.984a3.58 3.58 0 01-1.982.6H7.748a3.588 3.588 0 01-3.584-3.585v-.019c0-1.689.337-3.324 1.002-4.86a1.201 1.201 0 00-2.205-.954 14.554 14.554 0 00-1.2 5.814v.02c0 3.3 2.686 5.986 5.987 5.986h17.336a5.984 5.984 0 003.585-1.194A5.95 5.95 0 0032.252 82h17.336a5.95 5.95 0 003.583-1.194A5.984 5.984 0 0056.756 82h17.336c3.3 0 5.986-2.686 5.986-5.987v-.019c0-2.355-.572-4.696-1.654-6.77zM57.816 53.732c0-4.194 3.413-7.607 7.608-7.607 4.194 0 7.607 3.413 7.607 7.607 0 4.195-3.413 7.608-7.607 7.608-4.195 0-7.608-3.413-7.608-7.608zm-49.007 0c0-4.194 3.412-7.607 7.607-7.607s7.607 3.413 7.607 7.607c0 4.195-3.412 7.608-7.607 7.608s-7.607-3.413-7.607-7.608zm24.504 0c0-4.194 3.412-7.607 7.607-7.607s7.607 3.413 7.607 7.607c0 4.195-3.412 7.608-7.607 7.608s-7.608-3.413-7.608-7.608zm-1.06 25.866a3.588 3.588 0 01-3.585-3.585v-.019c0-6.756 5.496-12.252 12.252-12.252s12.252 5.496 12.252 12.252v.02a3.588 3.588 0 01-3.584 3.584H32.252z" fill="#222"/><path d="M68.835 55.333c-.015.008-1.598.852-3.411.852-1.81 0-3.385-.837-3.415-.854a1.2 1.2 0 00-1.155 2.107c.085.047 2.117 1.15 4.57 1.15 2.453 0 4.485-1.103 4.57-1.15a1.202 1.202 0 00-1.159-2.105zm-4.503-4.007a1.202 1.202 0 11-2.403 0 1.202 1.202 0 012.403 0zm4.586 0a1.201 1.201 0 11-2.402 0 1.201 1.201 0 012.402 0zm-24.587 4.007c-.015.008-1.598.852-3.411.852-1.81 0-3.385-.837-3.415-.854a1.2 1.2 0 00-1.155 2.107c.085.047 2.117 1.15 4.57 1.15 2.453 0 4.485-1.103 4.57-1.15a1.202 1.202 0 00-1.159-2.105zm-4.503-4.007a1.202 1.202 0 11-2.403 0 1.202 1.202 0 012.403 0zm4.586 0a1.201 1.201 0 11-2.402 0 1.201 1.201 0 012.402 0zm4.514-34.468h16.976a1.202 1.202 0 000-2.403H48.928a1.201 1.201 0 100 2.403zm0 4.804h16.976a1.202 1.202 0 000-2.402H48.928a1.201 1.201 0 100 2.402zm0 4.805h16.976a1.202 1.202 0 000-2.402H48.928a1.201 1.201 0 100 2.402z" fill="#222"/><path d="M13.593 33.353h5.753c.371 3.127 1.486 5.414 3.322 6.806 1.522 1.153 3.266 1.48 4.755 1.48.927 0 1.756-.127 2.37-.26a1.385 1.385 0 001.089-1.376 1.386 1.386 0 00-1.14-1.337c-.73-.13-1.229-.446-1.568-.993-.715-1.156-.567-3.08-.337-4.32h7.417a8.186 8.186 0 003.643-.852c1.197 3.113 4.245 5.297 7.69 5.297h7.416c.23 1.24.378 3.166-.338 4.32-.339.547-.837.863-1.57.994a1.387 1.387 0 00-1.137 1.334 1.372 1.372 0 001.09 1.38c.613.133 1.442.26 2.368.26 1.49 0 3.235-.328 4.757-1.483 1.835-1.392 2.95-3.678 3.32-6.805h5.753c4.537 0 8.229-3.689 8.229-8.222V12.669c0-4.535-3.692-8.223-8.229-8.223h-21.66a8.267 8.267 0 00-3.643.851C41.76 2.204 38.76 0 35.254 0H20.42a1.201 1.201 0 100 2.402h14.834a5.83 5.83 0 015.826 5.82v16.909a5.83 5.83 0 01-5.826 5.82h-8.37a1.2 1.2 0 00-1.152.86c-.133.45-1.247 4.46.397 7.121.044.072.09.143.138.212-.736-.127-1.484-.397-2.147-.9-1.466-1.111-2.299-3.185-2.475-6.163a1.202 1.202 0 00-1.2-1.13h-6.852a5.83 5.83 0 01-5.825-5.82V8.222a5.83 5.83 0 015.825-5.82h1.702a1.201 1.201 0 100-2.402h-1.702C9.056 0 5.365 3.689 5.365 8.222v16.909c0 4.534 3.691 8.222 8.228 8.222zm29.89-8.222V8.222a8.11 8.11 0 00-.015-.47 5.76 5.76 0 013.118-.903h21.66a5.829 5.829 0 015.826 5.82v16.907c0 3.21-2.614 5.82-5.826 5.82h-6.852c-.635 0-1.16.496-1.199 1.13-.176 2.978-1.008 5.052-2.474 6.164-.663.503-1.412.773-2.15.9.049-.07.095-.14.14-.212 1.644-2.661.53-6.672.397-7.12a1.2 1.2 0 00-1.152-.862h-8.37c-2.652 0-4.972-1.827-5.635-4.34a8.194 8.194 0 002.531-5.925z" fill="#222"/><path d="M13.293 14.318c0 2.522 1.31 7.447 10.087 12.09a2.231 2.231 0 002.087 0c8.777-4.643 10.088-9.568 10.088-12.09 0-3.853-2.709-6.87-6.166-6.87-2.38 0-4.052 1.122-4.965 1.957-.913-.835-2.584-1.958-4.965-1.958-3.458 0-6.166 3.018-6.166 6.87zm6.166-4.468c1.694 0 2.86.825 3.54 1.517a2.004 2.004 0 002.849.001c.68-.693 1.847-1.518 3.54-1.518 2.446 0 3.764 2.302 3.764 4.468 0 3.357-3.18 6.97-8.728 9.924-5.549-2.953-8.729-6.567-8.729-9.924 0-2.166 1.32-4.468 3.764-4.468z" fill="#222"/></svg>