<svg width="84" height="82" fill="none" xmlns="http://www.w3.org/2000/svg"><g clip-path="url(#clip0)" fill="#222"><path d="M25.867 16.434c-.727 0-1.316.575-1.316 1.284 0 1.558-1.298 2.825-2.893 2.825-1.596 0-2.894-1.267-2.894-2.825 0-1.557 1.298-2.824 2.894-2.824.726 0 1.315-.575 1.315-1.284 0-.71-.589-1.284-1.315-1.284-3.046 0-5.524 2.419-5.524 5.392 0 2.974 2.478 5.393 5.524 5.393s5.524-2.42 5.524-5.393c0-.709-.59-1.284-1.315-1.284zm0 15.065c-.727 0-1.316.575-1.316 1.284 0 1.557-1.298 2.825-2.893 2.825-1.596 0-2.894-1.268-2.894-2.825 0-1.558 1.298-2.825 2.894-2.825.726 0 1.315-.575 1.315-1.284 0-.709-.589-1.284-1.315-1.284-3.046 0-5.524 2.42-5.524 5.393s2.478 5.392 5.524 5.392 5.524-2.419 5.524-5.392c0-.71-.59-1.284-1.315-1.284zm15.432 2.739h-9.82c-.727 0-1.316.575-1.316 1.284 0 .71.589 1.284 1.315 1.284h9.82c.727 0 1.316-.575 1.316-1.284 0-.71-.589-1.284-1.315-1.284zm0-5.478h-9.82c-.727 0-1.316.575-1.316 1.284 0 .709.589 1.284 1.315 1.284h9.82c.727 0 1.316-.575 1.316-1.284 0-.71-.589-1.284-1.315-1.284zm-2.806 20.543h-7.015c-.726 0-1.315.574-1.315 1.284 0 .709.589 1.284 1.315 1.284h7.015c.726 0 1.315-.575 1.315-1.284 0-.71-.589-1.284-1.315-1.284zm2.806-5.478h-9.82c-.727 0-1.316.575-1.316 1.284 0 .709.589 1.284 1.315 1.284h9.82c.727 0 1.316-.575 1.316-1.284 0-.71-.589-1.284-1.315-1.284zm12.626-24.652H31.478c-.726 0-1.315.575-1.315 1.284 0 .71.589 1.284 1.315 1.284h22.447c.726 0 1.315-.575 1.315-1.284 0-.709-.589-1.284-1.315-1.284zm-5.612-5.478H31.478c-.726 0-1.315.575-1.315 1.284 0 .71.589 1.284 1.315 1.284h16.835c.727 0 1.316-.575 1.316-1.284 0-.709-.589-1.284-1.316-1.284zM25.867 46.564c-.727 0-1.316.575-1.316 1.284 0 1.557-1.298 2.824-2.893 2.824-1.596 0-2.894-1.267-2.894-2.824 0-1.558 1.298-2.825 2.894-2.825.726 0 1.315-.575 1.315-1.284 0-.71-.589-1.284-1.315-1.284-3.046 0-5.524 2.42-5.524 5.392 0 2.974 2.478 5.393 5.524 5.393s5.524-2.42 5.524-5.393c0-.709-.59-1.283-1.315-1.283z"/><path d="M59.536 0h-47.7c-2.271 0-4.12 1.805-4.12 4.023v57.52c0 2.218 1.848 4.023 4.12 4.023h23.85c.727 0 1.316-.575 1.316-1.284 0-.71-.589-1.284-1.315-1.284h-23.85c-.822 0-1.49-.653-1.49-1.455V4.023c0-.802.668-1.455 1.49-1.455h47.7c.821 0 1.49.653 1.49 1.455v42.455c0 .71.589 1.284 1.315 1.284.727 0 1.316-.575 1.316-1.284V4.023c0-2.218-1.85-4.023-4.122-4.023z"/><path d="M71.954 52.066a4.938 4.938 0 00-3.41.936c-.771-1.262-2.085-2.157-3.604-2.306a4.94 4.94 0 00-3.411.936c-.77-1.261-2.084-2.157-3.604-2.305a4.962 4.962 0 00-2.685.491v-16.35c0-1.328-.578-2.6-1.587-3.492a4.921 4.921 0 00-3.728-1.192c-2.428.237-4.33 2.38-4.33 4.879v16.392l-3.866 3.774c-2.055 2.006-2.884 4.852-2.218 7.613l2.935 12.178c1.189 4.934 5.646 8.38 10.84 8.38h11.862c6.14 0 11.136-4.876 11.136-10.87V56.945c0-2.499-1.902-4.642-4.33-4.88zm1.7 19.063c0 4.578-3.816 8.303-8.506 8.303H53.286c-3.967 0-7.371-2.632-8.28-6.401l-2.935-12.178c-.455-1.889.112-3.836 1.518-5.208l2.006-1.959v4.433c0 .709.589 1.284 1.315 1.284.727 0 1.316-.575 1.316-1.284V33.663c0-1.196.861-2.216 1.961-2.324a2.213 2.213 0 011.7.541c.46.406.723.984.723 1.588v22.597c0 .709.589 1.284 1.315 1.284.727 0 1.316-.575 1.316-1.284V54.01c0-.604.263-1.183.721-1.588a2.213 2.213 0 011.701-.541c1.1.107 1.962 1.128 1.962 2.324v3.228c0 .71.589 1.284 1.315 1.284s1.315-.575 1.315-1.284V55.38c0-.604.263-1.182.722-1.588a2.213 2.213 0 011.701-.54c1.1.107 1.962 1.127 1.962 2.323v3.228c0 .71.588 1.284 1.315 1.284.726 0 1.315-.574 1.315-1.284V56.75c0-.603.263-1.182.722-1.587a2.212 2.212 0 011.7-.541c1.1.107 1.962 1.128 1.962 2.323V71.13z"/></g><defs><clipPath id="clip0"><path fill="#fff" d="M0 0h84v82H0z"/></clipPath></defs></svg>