<svg width="94" height="94" fill="none" xmlns="http://www.w3.org/2000/svg"><path d="M32.716 35.25h27.539a1.102 1.102 0 000-2.203h-27.54a1.102 1.102 0 100 2.203zm-11.122-1.306l-2.448 2.34-.992-.992a1.1 1.1 0 10-1.558 1.557l1.754 1.755a1.102 1.102 0 001.54.017l3.226-3.084a1.102 1.102 0 10-1.522-1.593z" fill="#222"/><path d="M19.865 28.806a7.477 7.477 0 107.476 7.476 7.485 7.485 0 00-7.476-7.476zm0 12.75a5.273 5.273 0 110-10.548 5.273 5.273 0 010 10.548zM32.716 53.61h27.539a1.101 1.101 0 000-2.204h-27.54a1.102 1.102 0 000 2.203zm-11.122-1.306l-2.448 2.34-.992-.993a1.1 1.1 0 10-1.558 1.558l1.754 1.754a1.102 1.102 0 001.54.017l3.226-3.084a1.103 1.103 0 00-.735-1.902 1.1 1.1 0 00-.787.31z" fill="#222"/><path d="M19.865 47.165a7.476 7.476 0 107.476 7.476 7.485 7.485 0 00-7.476-7.476zm0 12.75a5.273 5.273 0 110-10.548 5.273 5.273 0 010 10.548zm1.729 10.748l-2.448 2.34-.992-.993a1.1 1.1 0 10-1.558 1.558l1.754 1.755a1.101 1.101 0 001.54.017l3.226-3.085a1.104 1.104 0 00.04-1.562 1.102 1.102 0 00-1.562-.03z" fill="#222"/><path d="M19.865 65.525A7.477 7.477 0 1027.341 73a7.485 7.485 0 00-7.476-7.477zm0 12.749a5.273 5.273 0 110-10.548 5.273 5.273 0 010 10.549v-.001zm12.851-39.352h14.687a1.102 1.102 0 000-2.203H32.716a1.101 1.101 0 100 2.203zm0 18.359h14.687a1.102 1.102 0 100-2.203H32.716a1.102 1.102 0 000 2.203zM10.832 17.276a1.102 1.102 0 00-1.102 1.102v1.156a1.102 1.102 0 102.204 0v-1.156a1.102 1.102 0 00-1.102-1.102zm0 4.644a1.102 1.102 0 00-1.102 1.1v10.648a1.102 1.102 0 102.204 0V23.021a1.101 1.101 0 00-1.102-1.102z" fill="#222"/><path d="M83.952 49.148a5.698 5.698 0 00-4.309.822l-11.346 7.452V16.087c0-3.644-2.995-6.54-6.64-6.54h-6.946v-3.42a1.101 1.101 0 10-2.203 0v3.42h-9.364v-3.42a1.101 1.101 0 10-2.203 0v3.42h-9.18v-3.42a1.101 1.101 0 10-2.202 0v3.42h-9.364v-3.42a1.101 1.101 0 10-2.203 0v3.42h-5.905a6.533 6.533 0 00-6.58 6.54v66.278c0 3.644 2.936 6.678 6.58 6.678h49.57c3.645 0 6.64-3.034 6.64-6.678v-11.23l17.64-11.585a5.731 5.731 0 00-1.985-10.402zM53.547 16.445a1.948 1.948 0 110 3.896 1.948 1.948 0 010-3.896zm-11.479 0a1.948 1.948 0 110 3.897 1.948 1.948 0 010-3.897zm-11.479 0a1.948 1.948 0 11-.001 3.897 1.948 1.948 0 01.001-3.897zm-11.479 0a1.948 1.948 0 110 3.896 1.948 1.948 0 010-3.896zm46.984 65.92a4.497 4.497 0 01-4.437 4.475h-49.57c-2.43 0-4.376-2.046-4.376-4.475V16.087a4.328 4.328 0 014.376-4.337h5.905v2.642c-1.652.484-3.041 2.094-3.041 4.002a4.15 4.15 0 108.3 0 4.073 4.073 0 00-3.056-4.002V11.75h9.364v2.642a4.098 4.098 0 00-3.085 4.002 4.155 4.155 0 108.311 0 4.259 4.259 0 00-3.023-4.002V11.75h9.18v2.642c-1.653.484-3.037 2.094-3.037 4.002a4.149 4.149 0 108.298 0 4.075 4.075 0 00-3.059-4.002V11.75h9.364v2.642a4.095 4.095 0 00-3.08 4.002 4.155 4.155 0 108.31 0c0-1.908-1.375-3.518-3.027-4.002V11.75h6.946c2.43 0 4.437 1.908 4.437 4.337V58.87l-4.138 2.717a1.1 1.1 0 001.21 1.84l16.38-10.756 1.332 2.028-27.752 18.225-1.332-2.028 5.214-3.423a1.102 1.102 0 00-1.21-1.842l-6.13 4.026-.033.024c-.028.02-.055.04-.082.062l-.024.024H32.716a1.102 1.102 0 000 2.203h15.571l-.78 1.474a1.13 1.13 0 00-.103-.005H32.716a1.102 1.102 0 100 2.203h13.628l-1.274 2.406a1.101 1.101 0 00.973 1.617h.03l9.309-.244c.022 0 .044-.005.067-.007l.072-.006c.029-.005.057-.012.085-.019.021-.005.042-.008.063-.014.048-.015.096-.032.141-.053.011-.005.022-.012.033-.019a1.12 1.12 0 00.104-.057l.01-.007 10.137-6.656v9.783zm-12.749-5.096l-5.447.142 2.472-4.67 2.975 4.528zm2.324-.476l-.085-.129-1.248-1.899 27.751-18.224 1.332 2.027-27.75 18.225zm29.56-19.483l-3.81-5.8a3.555 3.555 0 012.95.089c.265.127.51.291.73.486a3.538 3.538 0 01.13 5.225z" fill="#222"/></svg>