<svg width="82" height="82" fill="none" xmlns="http://www.w3.org/2000/svg"><g clip-path="url(#clip0)" fill="#222"><path d="M72.434 20.502V6.836c0-.755-.612-1.367-1.367-1.367h-5.466v2.733h4.1v12.3h2.733zM9.57 41.001v34.166c0 .755.611 1.367 1.366 1.367h54.665c.755 0 1.367-.612 1.367-1.367V65.6h-2.734v8.2H12.303V41.001H9.569zM53.867.14c-.043-.02-.083-.03-.127-.046a1.358 1.358 0 00-.354-.07c-.03-.006-.056-.021-.085-.021H10.936c-.755 0-1.367.612-1.367 1.366v2.734h2.734V2.736h39.632V13.67c0 .755.611 1.367 1.366 1.367h10.933v6.833h2.734v-8.2c0-.029-.015-.055-.017-.085a1.333 1.333 0 00-.071-.353c-.015-.044-.026-.085-.045-.128a1.359 1.359 0 00-.273-.4l-12.3-12.3c-.115-.11-.249-.2-.395-.263zm8.435 12.162h-7.634V4.67l7.634 7.633z"/><path d="M31.435 57.4v10.934c0 .754.612 1.366 1.366 1.366h17.766v-2.733h-16.4v-8.2h6.834v-2.733h-8.2c-.755 0-1.366.612-1.366 1.367z"/><path d="M36.901 61.5h8.2v2.734h-8.2V61.5z"/><path d="M72.433 23.235a9.579 9.579 0 00-9.567 9.567v.136l-6.97 7.358-4.363-4.364a1.366 1.366 0 00-1.932 0l-12.3 12.3a1.367 1.367 0 000 1.933l19.133 19.132a1.367 1.367 0 001.932 0l4.1-4.1 7.234-7.23v21.3H16.4V82h54.665c.755 0 1.367-.612 1.367-1.367V47.834H69.7v6.268l-4.764-4.764 7.36-6.97h.137a9.566 9.566 0 009.566-9.566 9.566 9.566 0 00-9.566-9.567zM57.4 66.401l-17.2-17.2 2.167-2.167 17.2 17.2L57.4 66.4zm10.367-10.367L61.5 62.301l-17.2-17.2 6.267-6.267 3.45 3.45-3.076 3.244a1.367 1.367 0 00.026 1.913l6.833 6.833a1.366 1.366 0 001.906.026l3.245-3.075 4.816 4.81zm4.666-16.4h-.683c-.35 0-.686.135-.94.375L58.792 51.388l-4.946-4.946L65.23 34.425c.239-.255.37-.591.369-.94v-.683a6.833 6.833 0 116.833 6.833zm-46.465.001h13.666v2.733H25.968v-2.733zm-8.2 5.466h16.399v2.733h-16.4v-2.733zm12.3-10.933h16.4v2.733h-16.4v-2.733zm-12.3 16.4h8.2V53.3h-8.2v-2.733zm0 5.466H28.7v2.733H17.768v-2.733z"/><path d="M17.768 61.5H28.7v2.734H17.768V61.5zm0 5.467H28.7V69.7H17.768v-2.733zm0-27.332h5.466v2.733h-5.466v-2.733zm10.934 10.933h5.467V53.3h-5.467v-2.733zm5.467-23.233h13.666v2.733H34.17v-2.733z"/><path d="M16.402 38.268c8.826-.01 16.062-7.005 16.37-15.826a3.613 3.613 0 002.65.828 3.706 3.706 0 005.691 0 3.707 3.707 0 004.023-4.023 3.704 3.704 0 000-5.69 3.706 3.706 0 00-4.023-4.023 3.706 3.706 0 00-5.69 0 3.706 3.706 0 00-4.024 4.023 3.547 3.547 0 00-.546.563 16.4 16.4 0 10-14.451 24.148zM33.438 15.5a1.366 1.366 0 00.777-1.873.958.958 0 011.278-1.278 1.369 1.369 0 001.873-.777.957.957 0 011.804 0 1.366 1.366 0 001.874.777.957.957 0 011.277 1.278 1.37 1.37 0 00.777 1.873.957.957 0 010 1.804 1.367 1.367 0 00-.777 1.874.92.92 0 01-.188 1.093.93.93 0 01-1.094.189 1.364 1.364 0 00-1.873.776.957.957 0 01-1.804 0 1.363 1.363 0 00-1.874-.772.958.958 0 01-1.277-1.278 1.37 1.37 0 00-.777-1.874.956.956 0 010-1.804l.004-.008zM16.402 8.202c7.548 0 13.666 6.119 13.666 13.667 0 7.547-6.118 13.666-13.666 13.666S2.736 29.416 2.736 21.869C2.744 14.324 8.857 8.21 16.402 8.202z"/><path d="M9.969 29.668a1.367 1.367 0 001.933 0l13.666-13.666-1.933-1.933-12.7 12.7-3.133-3.133-1.933 1.932 4.1 4.1z"/></g><defs><clipPath id="clip0"><path fill="#fff" d="M0 0h82v82H0z"/></clipPath></defs></svg>