<svg width="82" height="82" fill="none" xmlns="http://www.w3.org/2000/svg"><path d="M9.543 9.562v71.03c0 .755.612 1.367 1.366 1.367h51.907c.754 0 1.366-.612 1.366-1.366V23.222c0-.03-.015-.056-.017-.086a1.286 1.286 0 00-.07-.351c-.015-.044-.026-.086-.045-.13a1.351 1.351 0 00-.274-.4L50.116 8.597a1.326 1.326 0 00-.526-.318 1.354 1.354 0 00-.354-.071c-.023.004-.05-.01-.08-.01H10.91c-.754 0-1.366.61-1.366 1.365zm49.976 12.294h-8.997v-8.997l8.997 8.997zM12.275 10.928H47.79v12.294c0 .754.611 1.365 1.365 1.365H61.45v54.64H12.275v-68.3z" fill="#222"/><path d="M66.914 71.03v2.733h4.098c.754 0 1.366-.612 1.366-1.366V1.367C72.378.611 71.766 0 71.012 0H19.104c-.754 0-1.366.612-1.366 1.366v4.098h2.733V2.732h49.175V71.03h-2.732z" fill="#222"/><path d="M20.47 27.32h32.784v2.731H20.47V27.32zm0-8.197H31.4v2.733H20.47v-2.733zm0 16.392h21.857v2.733H20.47v-2.733zm24.588 0h8.195v2.733h-8.195v-2.733zM20.47 43.71h32.784v2.733H20.47v-2.732zm0 16.393h32.784v2.732H20.47v-2.732zm12.295-8.196h20.49v2.732h-20.49v-2.732zm-12.295 0h9.563v2.732H20.47v-2.732zm0 16.393h5.465v2.73H20.47V68.3zm8.197 0h24.587v2.73H28.668V68.3z" fill="#222"/></svg>