<svg width="100" height="100" fill="none" xmlns="http://www.w3.org/2000/svg"><path d="M94.237 14.836H90.09v-3.924c0-.81-.656-1.465-1.465-1.465h-8.832c-.809 0-1.465.656-1.465 1.465v3.924H29.935v-3.924c0-.81-.656-1.465-1.465-1.465h-8.832c-.809 0-1.465.656-1.465 1.465v3.924h-3.422a6.494 6.494 0 00-6.486 6.487v35.642a1.465 1.465 0 002.93 0V21.323a3.56 3.56 0 013.556-3.557h79.486A2.836 2.836 0 0197.07 20.6v48.444a2.836 2.836 0 01-2.833 2.833h-3.122v-5.544c0-.81-.656-1.465-1.465-1.465H73.91c-.809 0-1.465.656-1.465 1.465v5.544H48.967l5.543-1.516a14.2 14.2 0 007.276-4.714l9.414-11.47c.187-.228.307-.523.33-.817l.83-10.934a2.612 2.612 0 00-1.57-2.56 1.464 1.464 0 00-.722-2.739h-6.419a1.465 1.465 0 100 2.93h4.791c-.16.101-.312.221-.451.361l-5.376 5.376c-1.038 1.038-1.893 2.341-2.813 3.485a1.465 1.465 0 002.283 1.836l1.685-2.095 4.325 4.325-8.571 10.442a11.288 11.288 0 01-5.784 3.747l-23.131 6.657c-1.792.574-.899 3.364.894 2.79l5.088-1.632v12.274h-2.035a1.465 1.465 0 000 2.93h8.955a1.465 1.465 0 100-2.93h-3.99V74.805h54.718a5.77 5.77 0 005.762-5.762V20.599a5.77 5.77 0 00-5.762-5.763zm-12.978-2.46h5.903v2.46h-5.903v-2.46zm-60.156 0h5.902v2.46h-5.902v-2.46zm48.26 30.81l-.513 6.772-3.13-3.129 3.644-3.643zm6.012 28.69v-4.08h12.81v4.08h-12.81z" fill="#222"/><path d="M27.56 87.623H8.752v-7.778a32.64 32.64 0 013.313-14.308 7.177 7.177 0 016.404-3.994h24.683c5.16 0 10.178-1.824 14.132-5.134a1.465 1.465 0 00-1.88-2.247 19.113 19.113 0 01-12.252 4.45H32.546A9.477 9.477 0 0035.2 52.03v-5.38c3.766-.248 6.754-3.389 6.754-7.216 0-3.99-3.245-7.236-7.234-7.236-2.439-.057-4.76.51-6.47 2.37A4.436 4.436 0 0125 35.993h-4.026a6.106 6.106 0 00-6.098 6.1V53.07c0 1.246.3 2.47 1.053 3.481.34.457.758.854 1.23 1.17.51.342 1.253.466 1.662.892-3.922-.066-7.646 2.082-9.387 5.635a35.577 35.577 0 00-3.613 15.597v7.778H1.465a1.465 1.465 0 000 2.93H27.56a1.465 1.465 0 000-2.93zM25.272 58.6a6.548 6.548 0 01-2.345-.593 5.4 5.4 0 00.964-.633c1.218-1.005 1.889-2.492 1.889-4.187v-6.52h6.492v5.362a6.592 6.592 0 01-7 6.571zm-7.465-5.53V42.09a3.172 3.172 0 013.168-3.17H25a7.375 7.375 0 005.407-2.37c1.15-1.252 2.713-1.484 4.314-1.425a4.31 4.31 0 014.304 4.307 4.31 4.31 0 01-4.304 4.305H24.315c-.81 0-1.465.656-1.465 1.465v7.984c0 1.709-1.508 2.782-3.142 2.47-1.309-.25-1.901-1.315-1.901-2.587zm32.337-21.251h7.977c.81 0 1.465-.656 1.465-1.465v-5.39c0-.81-.656-1.465-1.465-1.465h-7.977c-.81 0-1.465.656-1.465 1.465v5.39c0 .81.656 1.465 1.465 1.465zm1.464-5.39h5.048v2.46h-5.048v-2.46zm-2.929 14.858c0 .809.656 1.465 1.465 1.465h7.977c.81 0 1.465-.656 1.465-1.465v-5.39c0-.81-.656-1.465-1.465-1.465h-7.977c-.81 0-1.465.655-1.465 1.465v5.39zm2.93-3.926h5.047v2.461h-5.048v-2.46zm12.041-8.237h26a1.465 1.465 0 000-2.93h-26a1.465 1.465 0 100 2.93z" fill="#222"/></svg>