<svg width="562" height="418" fill="none" xmlns="http://www.w3.org/2000/svg"><g clip-path="url(#clip0)"><path d="M522.462 348.755h-.144l.423-7.323h-37.273l1.799 31.059a10.998 10.998 0 003.435 7.366 11.021 11.021 0 007.559 3.001h11.696c2.811 0 5.515-1.074 7.56-3.001a11.003 11.003 0 003.437-7.366l.414-7.167c.363.033.731.054 1.103.054 5.443 0 9.87-3.73 9.87-8.315 0-4.584-4.436-8.308-9.879-8.308zm0 13.183a7.948 7.948 0 01-.899-.057l.557-9.672h.345c3.542 0 6.421 2.188 6.421 4.872 0 2.685-2.882 4.86-6.424 4.86v-.003z" fill="#00A85A"/><path d="M507.878 338.625c-3.656-.474-7.104-2.592-9.455-5.612a14.968 14.968 0 01-2.627-5.163c-.15-.467-.234-.95-.339-1.429a8.829 8.829 0 01-.186-1.456 15.491 15.491 0 010-2.921 16.236 16.236 0 011.586-5.585 15.408 15.408 0 013.473-4.599c.657-.6 1.289-1.136 1.829-1.666a9.11 9.11 0 00.75-.785c.21-.246.396-.511.558-.791.321-.547.5-1.165.522-1.798a2.3 2.3 0 00-.519-1.642l.938-1.366c.512.267.952.654 1.284 1.126.317.471.546.995.678 1.546a6.154 6.154 0 01-.15 3.236c-.741 2.116-2.153 3.5-3.209 4.734-.5.563-.955 1.164-1.362 1.798-.21.3-.377.632-.563.947a6.903 6.903 0 00-.474.997 14.54 14.54 0 00-1.128 4.255 13.494 13.494 0 001.893 8.467 15.97 15.97 0 006.924 6.089l-.423 1.618zm1.116-8.716a17.957 17.957 0 003.638-4.318 14.443 14.443 0 001.856-4.941 15.234 15.234 0 00-.081-5.264 19.594 19.594 0 00-1.874-5.33l1.199-1.139c1.938 1.235 3.398 3.206 4.25 5.393a13.045 13.045 0 01.669 7.068 13.373 13.373 0 01-3.107 6.379 11.581 11.581 0 01-5.815 3.635l-.735-1.483z" fill="#E5ECFF"/><path d="M214.761 390.258c-47.599-9.21-81.219-36.919-96.826-79.842-24.822-68.278 1.776-168.926 72.94-191.041 28.19-8.758 62.791 6.924 91.746 6.711 40.665-.299 77.237-25.234 117.635-22.055 52.592 4.141 91.038 52.548 100.899 101.664a145.006 145.006 0 011.07 51.283c-2.944 18.442-8.942 36.512-18.047 52.491-7.842 13.767-25.977 31.993-41.403 35.655l-228.014 45.134z" stroke="#A9CF46" stroke-width="3.82" stroke-miterlimit="10"/><path d="M342.173 382.633c47.041-11.604 82.986-46.651 95.366-86.752 19.711-63.789-14.608-153.534-87.662-168.824-14.838-3.104-30.478-2.319-45.532-.581-24.592 2.84-49.818 6.409-74.601 5.618-24.103-.767-47.476-7.847-71.765-7.302-80.278 1.798-128.353 78.401-109.93 148.536 4.354 16.575 11.74 32.605 22.086 46.522 8.91 11.985 28.49 27.341 44.234 29.633l227.804 33.15z" stroke="#FBC343" stroke-width="3.75" stroke-miterlimit="10"/><path d="M459.99 305.268c-12.616 36.476-27.686 72.508-80.101 86.41l-226.544-2.397c-51.063-24.089-78.959-71.669-83.601-122.988a174.873 174.873 0 013.029-51.396 175.35 175.35 0 013.329-13.402c11.695-40.314 36.475-78.321 73.323-99.759 23.692-13.782 54.026-9.228 79.172-2.157 22.671 6.373 44.818 15.301 68.225 17.977 18.647 2.136 37.615.24 56.32.974 6.69.21 13.355.911 19.942 2.097 28.259 5.303 53.306 22.612 70.499 45.758a125.972 125.972 0 0114.785 25.678c15.135 35.528 14.217 76.72 1.622 113.205z" fill="#00A85A"/><path d="M29.296 361.345c-1.031-12.53 5.998-26.043 18.327-35.262 11.237-8.39 25.1-12.68 38.41-16.054 73.947-18.753 152.045-16.515 227.591-14.352 67.502 1.936 137.308 3.934 204.133-8.989 9.515-1.839 19.514-4.08 28.025-9.354 9.14-5.665 14.928-14.543 15.102-23.163.33-16.18-17.202-27.248-27.68-32.413-39.792-19.619-88.768-26.999-154.084-23.233a738.799 738.799 0 00-146.578 23.511c-10.796 2.868-21.787 6.041-32.406 9.106-38.015 10.981-77.319 22.331-117.408 22.331h-.6c-10.883-.03-24.855-2.233-29.617-12.548-3.362-7.281-.534-15.581 2.429-21.25 9.896-18.968 28.634-30.024 42.609-35.954 15.693-6.663 32.751-10.289 49.242-13.782l5.872-1.253a1113.011 1113.011 0 00109.46-29.485c16.986-5.519 25.701-12.698 26.649-21.945.839-8.203-5.186-15.385-11.531-18.876-7.6-4.17-16.581-4.713-23.554-4.716h-.099a129.71 129.71 0 00-60.413 14.927c-6.864 3.626-13.495 7.943-19.895 12.117-8.478 5.525-17.247 11.239-26.69 15.442-18.3 8.114-39.922 11.107-64.336 8.884-18.839-1.717-33.198-6.337-43.898-14.127-6.457-4.701-11.846-10.762-17.058-16.629C14.965 107.153 8.403 99.785.006 95.001l.558-.977c8.577 4.878 15.19 12.317 21.592 19.511 5.17 5.819 10.52 11.835 16.878 16.479 10.532 7.667 24.708 12.219 43.337 13.915 24.201 2.205 45.656-.756 63.757-8.803 9.369-4.165 18.099-9.855 26.54-15.356 6.427-4.195 13.073-8.518 19.982-12.17a130.872 130.872 0 0160.941-15.056h.099c7.108 0 16.272.56 24.096 4.853 6.67 3.659 12.998 11.251 12.107 19.964-.999 9.735-9.965 17.225-27.419 22.9A1113.29 1113.29 0 01152.9 169.774c-1.956.421-3.914.84-5.875 1.255-16.455 3.476-33.459 7.089-49.053 13.711-13.796 5.863-32.302 16.778-42.051 35.445-2.846 5.453-5.572 13.396-2.4 20.26 4.499 9.78 18.042 11.865 28.598 11.895h.6c39.934 0 79.171-11.329 117.099-22.286 10.625-3.068 21.61-6.241 32.43-9.111a739.77 739.77 0 01146.8-23.547c65.532-3.781 114.672 3.637 154.648 23.343 10.718 5.285 28.649 16.656 28.307 33.447-.183 8.988-6.175 18.229-15.637 24.095-8.669 5.375-18.785 7.64-28.399 9.501-66.948 12.956-136.817 10.954-204.382 9.019-75.456-2.161-153.485-4.396-227.282 14.318-13.195 3.344-26.934 7.584-38.012 15.862-12.031 8.989-18.893 22.124-17.88 34.274l-1.115.09z" fill="#fff"/><path d="M356.178 361.785c15.295 3.916 36.311 7.431 29.615 20.494l-38.107-.036 8.492-20.458z" fill="#E28B6D"/><path d="M197.971 271.773h-36.86c-12.586 0-22.789 10.194-22.789 22.769v75.213c0 12.575 10.203 22.768 22.789 22.768h36.86c12.586 0 22.788-10.193 22.788-22.768v-75.213c0-12.575-10.202-22.769-22.788-22.769z" fill="#102048"/><path opacity=".8" d="M156.681 282.904c-1.385.363-2.318 1.627-2.945 2.916a18.842 18.842 0 00-1.352 4.194 56.316 56.316 0 00-1.086 8.842 160.534 160.534 0 00.183 17.902c.342 5.967.879 11.92 1.61 17.861.348 2.97.748 5.933 1.2 8.89.441 2.957.933 5.908 1.535 8.838l-.428.096a157.15 157.15 0 01-1.881-8.806c-.549-2.951-.992-5.92-1.406-8.892a246.562 246.562 0 01-1.746-17.924c-.3-5.992-.458-12.014-.021-18.025.186-3.015.618-6.01 1.293-8.955a19.46 19.46 0 011.559-4.288 8.134 8.134 0 011.344-1.891 4.155 4.155 0 012.036-1.177l.105.419z" fill="#fff"/><path d="M170.782 290.862s2.333 47.259 17.016 99.249h40.123l-57.139-99.249z" fill="#1F3C88"/><path d="M189.187 266.737c-10.08-5.48-12.845-19.059-5.482-27.865a38.595 38.595 0 012.366-2.577c11.249-11.193 4.24-22.393 2.666-48.149-1.575-25.755 27.122-32.757 27.176-32.772 1.353-.33 3.974-4.195 5.08-5.147 12.949-11.23 31.525-10.4 45.722-1.861 6.753 4.063 13.549 10.319 17.204 17.498 5.797 11.385 6.847 26.384 16.608 35.25 13.918 12.638 29.354 23.37 28.73 43.745-.219 7.241-2.033 14.891-6.451 20.694-3.85 5.058-9.713 8.453-14.994 11.724-8.604 5.319-17.694 10.023-27.29 13.184-9.297 3.059-18.702 5.806-28.127 8.428l-2.675.74-60.533-32.892z" fill="#6F3428"/><path d="M254.797 255.606c33.699-11.559 52.001 26.124 77.168 99.651l24.213 6.528-2.813 26.184-8.834 1.84-72.142.299-17.592-134.502z" fill="#708CD5"/><path d="M541.904 381.437H29.497v17.645h512.407v-17.645z" fill="#E5ECFF"/><path d="M207.324 250.132l75.357 18.843 31.662 94.785-105.768 3.218-6.997-70.081 5.746-46.765z" fill="#708CD5"/><path opacity=".3" d="M209.981 290.862c18.516 18.625 14.422 45.911 30.238 48.62 10.473 1.797 40.228 6.04 54.425 11.952 2.873 1.198 10.796 7.083 9.569 12.308-.791 3.368-11.354.671-11.354.671l-79.075-7.931-16.746-38.711 12.943-26.909z" fill="#1F3C88"/><path d="M275.027 359.125c.537-.848 11.876-3.095 13.157-2.919 4.216.576 6.519 3.874 7.536 6.4l-16.776 8.827-3.917-12.308zm12.551-68.347l1.947 4.432c.641 1.498 1.238 2.996 1.862 4.47 1.2 2.996 2.348 6.013 3.428 9.055 2.192 6.07 4.132 12.23 5.953 18.423 1.82 6.193 3.394 12.455 4.816 18.75a308.768 308.768 0 011.937 9.486 193.87 193.87 0 011.5 9.567l-.417.06a211.193 211.193 0 00-1.8-9.483c-.647-3.152-1.37-6.292-2.099-9.42a404.026 404.026 0 00-4.927-18.666c-1.76-6.19-3.719-12.324-5.785-18.418-1.02-3.053-2.129-6.076-3.248-9.09-.573-1.498-1.124-3.018-1.715-4.516l-1.8-4.494.348-.156z" fill="#102048"/><path d="M347.814 375.118s-3.17 3.746-13.181.096c-4.714.549-13.495.129-30.169-2.588 0 0 6.058 4.23 19.757 4.955 0 0-.6 4.033-7.797 3.853-8.697-.218-9.692-.743-17.61-.413-1.619.069-5.143 0-8.96-.126-6.658-.219-14.221-.572-14.221-.572l-6.598-11.781 13.165-6.292c4.04-1.579 6.058-2.125 8.022-2.397 8.502-1.199 13.87-2.163 19.964-1.115 6.763 1.145 27.446 7.997 37.628 16.38z" fill="#F9B384"/><path d="M290.202 380.691l-.369.204c-6.657-.219-14.221-.572-14.221-.572l-6.597-11.781 13.165-6.292c4.039-1.579 6.058-2.125 8.022-2.397-4.828 1.956-8.79 7.125 0 20.838z" fill="#E28B6D"/><path d="M238.386 255.48c-17.13-3.505-58.871-6.424-70.534 15.167-9.597 17.776 14.467 77.302 24.891 98.236 4.291 8.617 16.755 12.884 21.592 12.914l68.822-.396c-4.63-1.072-10.565-25.896 5.017-25.192l-56.979-7.934a7.802 7.802 0 01-5.443-3.418c-.825-1.244-1.782-2.817-2.27-4.605l-16.176-59.205 31.08-25.567z" fill="#708CD5"/><path d="M390.663 381.794l-67.145-.042v-6.328h67.535l-.39 6.37z" fill="#fff"/><path d="M447.396 381.794l-81-.024 29.545-86.315 80.998.027-29.543 86.312z" fill="#102048"/><path d="M428.195 343.233c-2.483 3.961-7.123 5.585-10.661 3.847a5.258 5.258 0 01-.6-.336c-3.599-2.247-4.394-7.475-1.77-11.664s7.669-5.768 11.276-3.511a6.86 6.86 0 012.475 2.732c1.274 2.571 1.109 6.011-.72 8.932z" fill="#fff"/><path d="M428.194 343.233c-2.483 3.961-8.583 6.84-12.859 2.13 9.276.839 12.398-5.231 12.224-12.902 3.172 3.506 2.465 7.85.635 10.772z" fill="#708CD5"/><path d="M310.213 358.505c3.443.509 6.775 1.468 10.08 2.492 3.305 1.025 6.546 2.242 9.737 3.581a90.343 90.343 0 019.366 4.494c3.02 1.696 5.962 3.596 8.559 5.891l-.279.338a52.016 52.016 0 00-4.265-2.855 82.533 82.533 0 00-4.48-2.511 108.481 108.481 0 00-9.333-4.318c-3.142-1.384-6.369-2.558-9.596-3.709a124.866 124.866 0 00-4.894-1.606c-1.638-.512-3.299-.983-4.961-1.351l.066-.446zm-1.334 15.972l3.623 1.034c1.2.323 2.42.599 3.641.851 1.22.251 2.447.443 3.682.617 1.236.174 2.474.3 3.719.41l.414.039.033.36c.044.45-.002.904-.135 1.336a2.468 2.468 0 01-.726 1.142 2.77 2.77 0 01-1.178.572c-.205.041-.411.07-.618.087h-.6v-.44l.543-.081c.172-.04.342-.088.51-.144.312-.108.593-.29.818-.531.214-.231.361-.515.426-.823.068-.312.076-.633.024-.947l.447.398a36.724 36.724 0 01-7.581-.926 32.93 32.93 0 01-3.668-1.078 38.468 38.468 0 01-3.518-1.45l.144-.426z" fill="#6F3428"/><path d="M305.812 365.755c2.912.372 5.841.657 8.771.956 2.93.3 5.86.599 8.79 1.07 2.93.47 5.812.995 8.712 1.519 2.9.524 5.794 1.061 8.682 1.645l.684.138-.3.635a8.552 8.552 0 01-.747 1.555c-.18.263-.388.506-.621.725a8.073 8.073 0 01-.761.536c-1.062.62-2.199.83-3.299 1.046-2.237.365-4.463.35-6.673.279a62.895 62.895 0 01-3.299-.189c-1.088-.099-2.201-.159-3.298-.3-2.193-.228-4.373-.539-6.55-.854l.054-.437c2.192.18 4.372.425 6.562.554 1.094.084 2.186.15 3.28.198a99.99 99.99 0 003.278.102 38.812 38.812 0 006.481-.378c1.031-.207 2.099-.431 2.939-.944.213-.119.387-.278.6-.413.163-.161.311-.338.44-.527.263-.451.481-.927.651-1.421l.393.773c-5.782-1.09-11.558-2.253-17.349-3.256-2.879-.525-5.803-.875-8.721-1.268-2.917-.392-5.838-.776-8.744-1.312l.045-.432z" fill="#6F3428"/><path d="M29.497 381.437h512.41" stroke="#102048" stroke-width="5" stroke-miterlimit="10"/><path d="M229.96 277.91a24.494 24.494 0 008.154 3.595 22.37 22.37 0 008.829.339 18.326 18.326 0 008.097-3.353 18.621 18.621 0 005.614-6.816l.402.173c-.3.698-.633 1.4-.963 2.098-.33.698-.818 1.309-1.229 1.968-.411.659-1.002 1.199-1.5 1.798s-1.151 1.046-1.727 1.573a18.55 18.55 0 01-8.514 3.673 22.335 22.335 0 01-17.427-4.707l.264-.341zm-19.775 12.895l3.758 12.761 3.685 12.779 3.662 12.788 1.817 6.397.9 3.2c.259 1.05.59 2.081.99 3.086.824 1.932 2.492 3.361 4.378 4.347a25.601 25.601 0 006.166 2.053c2.15.461 4.324.773 6.532 1.057l6.597.899 13.196 1.822 13.177 1.896-.054.417-13.222-1.567-13.214-1.639-6.597-.839c-2.196-.27-4.418-.578-6.598-1.04a26.71 26.71 0 01-6.433-2.115c-2.021-1.037-3.949-2.649-4.867-4.848a5.087 5.087 0 01-.321-.818c-.093-.276-.198-.557-.264-.821l-.447-1.606-.899-3.203-1.8-6.406-3.559-12.802-3.524-12.827-3.464-12.845.405-.126z" fill="#102048"/><path d="M252.988 228.709l3.374 29.024c1.004 8.641-8.097 15.88-17.349 13.483-5.281-1.369-10.796-5.021-16.494-10.51a6.703 6.703 0 01-2.042-4.147l-3.599-34.981 36.11 7.131z" fill="#F9B384"/><path d="M253.447 232.655l1.836 15.805c-7.465 1.172-17.994-3.023-28.664-17.18l26.828 1.375z" fill="#3C1C16"/><path d="M271.857 207.811c-.432 5.264-1.262 10.762-2.741 15.703-2.498 8.302-6.855 15.002-14.32 16.242-21.976 3.649-37.9-18.178-37.9-18.178l-2.567-29.701 13.264-22.924 29.69-.86 14.481 17.117c.631 7.519.663 15.077.093 22.601z" fill="#F9B384"/><path d="M213.631 203.163c11.795-.88 14.512-10.84 15.318-23.751 0 0 31.954-7.906 43.296 14.787l8.604.932-26.052-34.553-40.485 4.827-7.92 26.256 7.239 11.502z" fill="#6F3428"/><path d="M219.871 199.292a6.438 6.438 0 00-5.512-2.058c-7.836.95-9.198 11.317-7.407 15.73 2.681 6.592 9.941 8.611 9.941 8.611l6.241-6.592c.492-6.864-.282-12.41-3.263-15.691z" fill="#F9B384"/><path opacity=".15" d="M220 229.542c4.307 12.233 17.556 46.783-4.084 45.914-10.431-.417-19.595-20.629-34.461-16.815a39.297 39.297 0 015.557-2.145L220 229.542z" fill="#3C1C16"/><path d="M216.894 221.575c4.174 7.922 15.852 47.112-4.04 44.85-9.596-1.093-11.938-12.629-25.841-9.929l29.881-34.921z" fill="#6F3428"/><path d="M217.577 206.471a4.317 4.317 0 00-.713-2.475 4.438 4.438 0 00-1.842-1.621 2.998 2.998 0 00-2.27-.119c-.759.266-1.433.862-2.099 1.552l-.483-.3a4.553 4.553 0 012.063-2.415c.254-.143.53-.244.816-.3.284-.081.58-.116.876-.104l.443.015.429.089c.285.054.561.149.819.282a4.866 4.866 0 012.321 2.331 4.054 4.054 0 01.186 3.179l-.546-.114zm42.036-4.425c.072 2.019 1.247 3.616 2.63 3.568 1.382-.048 2.444-1.723 2.372-3.742-.072-2.019-1.248-3.616-2.63-3.568-1.383.047-2.432 1.725-2.372 3.742zm-21.778.764c.069 2.019 1.248 3.616 2.631 3.565 1.382-.05 2.441-1.722 2.372-3.742-.069-2.019-1.248-3.613-2.63-3.565-1.383.048-2.444 1.723-2.373 3.742zm21.511 19.787a10.762 10.762 0 01-3.598 3.056 7.049 7.049 0 01-4.934.35 12.208 12.208 0 01-4.198-2.283 19.48 19.48 0 01-3.248-3.271l.453-.471c1.245.86 2.399 1.78 3.647 2.553 1.247.773 2.48 1.498 3.79 1.879a6.357 6.357 0 003.92-.069c1.277-.474 2.483-1.322 3.689-2.212l.479.468zM267 195.811a18.503 18.503 0 00-2.801-1.717 5.352 5.352 0 00-2.738-.5 9.51 9.51 0 00-2.834.835c-.978.426-1.937.998-3.038 1.499l-.3-.315a8.907 8.907 0 012.399-2.751 6.978 6.978 0 013.617-1.426 5.498 5.498 0 013.829 1.169 6.848 6.848 0 012.22 2.954l-.354.252zm-21.829.764a11.516 11.516 0 00-3.149-1.651 7.87 7.87 0 00-3.23-.327 11.975 11.975 0 00-3.251.869c-1.086.45-2.15 1.034-3.338 1.597l-.3-.299a9.332 9.332 0 012.741-2.922 8.303 8.303 0 013.941-1.432 7.001 7.001 0 014.174.899 6.423 6.423 0 012.759 2.999l-.347.267z" fill="#3C1C16"/><path opacity=".5" d="M224.07 216.769a7.978 7.978 0 005.188 7.197 7.993 7.993 0 0010.682-6.196 7.978 7.978 0 00-3.683-8.069 7.98 7.98 0 00-4.482-1.189 7.982 7.982 0 00-7.204 5.183 7.979 7.979 0 00-.501 3.074zm47.788-8.958c-.432 5.264-1.262 10.762-2.741 15.703a7.985 7.985 0 011.65-15.733 9.46 9.46 0 011.091.03zm-21.241-7.341a.343.343 0 01.098-.21.343.343 0 01.57.147c1.8 5.825 7.591 10.079 6.661 11.79-.654 1.199-3.107 2.565-4.828 3.407a1.553 1.553 0 01-1.364-.006 1.542 1.542 0 01-.825-1.085c-.843-4.323-.795-9.069-.312-14.043z" fill="#FC8879"/><path d="M251.846 199.88a15.031 15.031 0 002.126 4.71c.951 1.456 2.063 2.81 3.188 4.233.285.357.558.728.828 1.124.304.422.554.881.744 1.366.134.344.17.718.104 1.082-.09.347-.265.666-.509.929a6.105 6.105 0 01-1.164.994 18.924 18.924 0 01-5.056 2.268l-.249-.599c.765-.455 1.55-.899 2.291-1.369a20.916 20.916 0 002.141-1.471c.304-.243.584-.514.837-.809.057-.072.104-.15.141-.234a.836.836 0 00-.069-.24c-.234-.599-.834-1.33-1.352-2.022-1.086-1.411-2.229-2.879-3.101-4.527a11.751 11.751 0 01-1.548-5.357l.648-.078zm-41.934 23.87a7.52 7.52 0 00-.6 3.566c.101 1.225.39 2.428.858 3.565.965 2.274 2.255 4.495 3.386 6.799 1.13 2.304 2.165 4.722 2.627 7.334.226 1.314.29 2.65.192 3.979-.07.672-.181 1.34-.33 1.999a9.512 9.512 0 01-.738 1.923 7.714 7.714 0 01-2.774 3.077 6.477 6.477 0 01-4.091.959c-1.43-.18-2.63-.698-3.826-1.177-1.197-.48-2.354-1.013-3.512-1.534-2.312-1.019-4.651-2.008-7.077-2.457a8.216 8.216 0 00-3.599 0 4.827 4.827 0 00-1.578.77 5.338 5.338 0 00-1.199 1.318l-.486-.282a5.96 5.96 0 011.251-1.579 5.582 5.582 0 011.784-.994 9.087 9.087 0 013.986-.228c2.609.401 5.035 1.345 7.41 2.295l3.521 1.462c1.16.459 2.351.923 3.46 1.043a5.05 5.05 0 003.203-.788 6.702 6.702 0 002.264-2.544c.273-.517.49-1.063.645-1.627.134-.582.234-1.171.3-1.765.1-1.211.053-2.431-.141-3.631-.402-2.415-1.343-4.746-2.399-7.035-1.056-2.289-2.267-4.53-3.203-6.981a12.964 12.964 0 01-.729-3.874 7.791 7.791 0 01.879-3.847l.516.254zm.405-66.725a42.106 42.106 0 016.676-2.262 66.94 66.94 0 016.898-1.417 59.18 59.18 0 017.02-.663 46.946 46.946 0 013.539.033c1.183.067 2.359.219 3.52.453l-.081.554c-1.154-.036-2.3-.075-3.451 0-1.152.075-2.303.105-3.452.216-2.299.2-4.593.474-6.883.824-2.291.335-4.567.749-6.84 1.198a79.179 79.179 0 00-3.392.743c-1.127.27-2.24.561-3.362.863l-.192-.542zm18.503 22.136a12.822 12.822 0 012.999-1.061 31.796 31.796 0 013.08-.578 46.185 46.185 0 016.241-.396c4.187.012 8.355.576 12.394 1.678 4.031 1.127 7.936 2.901 11.285 5.465a24.221 24.221 0 017.69 9.81l-.507.24a26.355 26.355 0 00-7.932-9.043 32.16 32.16 0 00-5.219-3.044 40.26 40.26 0 00-5.697-2.061 50.557 50.557 0 00-12.032-1.834 47.546 47.546 0 00-6.109.15c-2.018.179-4.087.44-5.926 1.174l-.267-.5zM87.614 290.937l7.71 2.496a1.688 1.688 0 011.168 1.501 1.69 1.69 0 01-.964 1.639l-8.418 3.988v.114l11.776 2.346a.81.81 0 01.685.964.81.81 0 01-.67.647.808.808 0 01-.33-.014l-11.776-2.346a1.693 1.693 0 01-.396-3.188l8.418-3.988v-.114l-7.707-2.496a.809.809 0 01-.476-.404.814.814 0 01.977-1.148l.002.003zm-19.901-10.609l6.843 2.217a1.494 1.494 0 01.183 2.786l-7.476 3.542v.102l10.457 2.097a.724.724 0 01.263 1.314.728.728 0 01-.545.109l-10.46-2.097a1.498 1.498 0 01-.35-2.835l7.475-3.541v-.099l-6.846-2.217a.726.726 0 01-.095-1.326.73.73 0 01.545-.052h.006zm41.316 26.864l5.428 1.758a1.197 1.197 0 01.654 1.736 1.202 1.202 0 01-.51.476l-5.929 2.807v.081l8.292 1.651a.573.573 0 01.189 1.026.574.574 0 01-.414.1l-8.271-1.651a1.192 1.192 0 01-.939-1.024 1.198 1.198 0 01.66-1.223l5.929-2.807v-.078l-5.428-1.759a.578.578 0 01-.346-.716.574.574 0 01.7-.377h-.015z" fill="#3C1C16"/><path d="M448.308 228.658h-24.09a7.16 7.16 0 00-7.164 7.158v21.672a7.16 7.16 0 007.164 7.157h24.09c3.957 0 7.165-3.204 7.165-7.157v-21.672a7.162 7.162 0 00-7.165-7.158z" fill="#fff" stroke="#B3CA17" stroke-width="3.75" stroke-miterlimit="10"/><path d="M436.262 271.758l-6.982-7.112h13.966l-6.984 7.112zm-.612-14.912a1.272 1.272 0 01-.972-.449l-6.985-8.204a1.273 1.273 0 011.075-2.095c.337.027.65.187.869.445l5.791 6.801 9.014-16.234a1.29 1.29 0 01.764-.607 1.277 1.277 0 011.619 1.368c-.019.167-.07.328-.151.474l-9.897 17.845a1.27 1.27 0 01-.989.65.797.797 0 01-.138.006z" fill="#A9CF46"/><path d="M79.948 343.347c-10.697 2.531-22.564 6.04-27.638 16.814-4.799 10.187.195 20.075 9.824 24.869 6.517 3.26 31.348 8.746 21.038 20.784-6.664 7.79-18.23 5.372-25.84.782-3.96-2.397-7.571 3.805-3.622 6.19 8.652 5.223 18.593 7.137 28.016 2.82 10.214-4.686 14.233-16.698 6.442-25.468-3.995-4.494-9.639-6.624-15.184-8.53-5.245-1.798-12.112-3.82-14.658-9.345-2.4-5.199.746-11.14 4.74-14.565 5.165-4.425 12.35-5.908 18.79-7.43 4.497-1.064 2.59-7.979-1.908-6.915v-.006zm98.328 13.105c12.164.71 13.036-15.116 13.036-15.116s-8.322-4.218-16.116 1.013l3.08 14.103z" fill="#EE6F57"/><path d="M178.964 351.658c4.843-.075 7.227-6.157 7.227-6.157s-3.572-2.181-8.067.051l.84 6.106z" fill="#3C1C16"/><path d="M143.93 341.813c-8.433-8.785 3.05-19.719 3.05-19.719s8.613 3.596 9.687 12.905l-12.737 6.814z" fill="#EE6F57"/><path d="M146.929 338.136c-2.945-3.559 0-9.051 0-9.051s3.794 1.237 4.954 5.878l-4.954 3.173z" fill="#3C1C16"/><path d="M161.336 380.67a3.034 3.034 0 01-2.349 1.765c-8.223 1.267-10.232-1.001-10.232-1.001s-6.546 3.638-21.931-.692a3.534 3.534 0 01-2.039 1.576c-2.354.77-11.492-.024-17.445-.647-3.599-.38-14.14.467-14.14.467-9.596 0-20.512-2.564-24.735-12.188-5.344-12.18.28-26.78 9.342-35.496 9.671-9.321 22.576-10.16 34.307-4.054 28.46 14.816 30.613 9.983 37.916 3.844l4.921 37.339c1.613.563 3.029 1.333 4.048 2.397a12.546 12.546 0 011.62 2.055c1.277 2.059 1.157 3.602.717 4.635z" fill="#EE6F57"/><path opacity=".3" d="M141.756 341.813c-11.411 6.699-11.786 27.921 10.244 29.995l2.522-9.624-12.766-20.371z" fill="#3C1C16"/><path d="M181.27 357.591c-2.315 8.134-6.139 12.793-10.062 15.385a18.154 18.154 0 01-10.052 3.071 23.542 23.542 0 01-7.107-1.108c-8.727-2.742-15.859-10.382-15.859-20.42 0-12.673 9.216-22.387 20.813-22.387 13.279 0 26.39 10.951 22.267 25.459z" fill="#EE6F57"/><path opacity=".3" d="M171.208 372.976a18.154 18.154 0 01-10.052 3.071h-.534a12.552 12.552 0 00-1.619-2.055c-1.02-1.07-2.435-1.84-4.049-2.397 3.563-.728 5.623.225 5.623.225s6.562-3.257 10.616 1.153l.015.003z" fill="#3C1C16"/><path d="M158.826 376.604c-1.154 1.66-.948 3.973.66 5.202.324.279.73.445 1.157.473h11.438c.549 0 .84-.599.987-1.345.447-2.286-.516-4.605-2.3-6.106-3.689-3.095-8.619-3.024-11.942 1.776z" fill="#EE6F57"/><path d="M138.187 370.462a52.144 52.144 0 016.936.201 45.95 45.95 0 016.874 1.145 24.62 24.62 0 013.338 1.084c1.108.428 2.164.98 3.148 1.645a8.182 8.182 0 012.475 2.622 5.463 5.463 0 01.599 3.532l-.42-.045a5.168 5.168 0 00-.812-3.104 7.405 7.405 0 00-2.375-2.214c-1.878-1.177-4.04-1.917-6.229-2.478a55.351 55.351 0 00-6.709-1.27c-2.264-.3-4.549-.527-6.834-.686l.009-.432zm-38.177-22.561a14.497 14.497 0 016.472 2.619 9.432 9.432 0 012.366 2.675 11.013 11.013 0 011.275 3.341c.223 1.166.315 2.354.273 3.541a24.473 24.473 0 01-.441 3.497 35.177 35.177 0 01-2.121 6.664 35.188 35.188 0 01-1.514 3.152l-.213.383-.114.198c.051.168-.48-1.42-.249-.746h.024l.051.018.099.039.792.299c.531.204 1.067.39 1.604.57a42.024 42.024 0 006.631 1.57c2.237.317 4.588.569 6.84 1.135 1.143.268 2.257.647 3.326 1.13a5.488 5.488 0 011.5.992c.246.222.425.508.518.826.09.338.044.697-.128 1.001l-.369-.201c.225-.449.018-.898-.384-1.249a5.009 5.009 0 00-1.401-.821 17.77 17.77 0 00-3.245-.947c-2.234-.494-4.483-.671-6.807-.938a39.218 39.218 0 01-8.466-2.094l-.816-.299-.102-.039-.051-.021h-.027c.225.668-.321-.917-.261-.758l.099-.18.201-.372a45.716 45.716 0 001.467-3.071 34.165 34.165 0 002.099-6.445c.23-1.1.381-2.216.45-3.337a16.265 16.265 0 00-.186-3.329 9.263 9.263 0 00-3.206-5.621c-1.712-1.423-3.874-2.274-6.094-2.772l.108-.41zm65.137 3.083c.801 1.474 1.886 2.792 3.335 3.245.747.224 1.532.29 2.306.195.402-.039.807-.15 1.221-.207.404-.12.812-.24 1.241-.336l.207.42c-.375.245-.771.47-1.172.692a9.583 9.583 0 01-1.314.455 5.35 5.35 0 01-2.873-.066 4.707 4.707 0 01-2.345-1.704 5.546 5.546 0 01-1.056-2.574l.45-.12zm-13.052-5.618c.687 1.531 1.665 2.93 3.077 3.494a5.595 5.595 0 002.283.371c.404 0 .815-.084 1.232-.111.414-.087.831-.173 1.266-.236l.174.434a19.54 19.54 0 01-1.224.599c-.439.149-.888.267-1.343.354a5.372 5.372 0 01-2.861-.3 4.69 4.69 0 01-2.205-1.881 5.518 5.518 0 01-.854-2.646l.455-.078z" fill="#3C1C16"/><path d="M429.194 170.16h12.67l-10.118-65.437h-12.671l10.119 65.437z" fill="#8CBFBE"/><path d="M441.872 170.16h12.671l-10.119-65.437h-12.667l10.115 65.437z" fill="#C6EAE9"/><path d="M506.061 140.099h-46.756v30.052h46.756v-30.052z" fill="#8CBFBE"/><path d="M492.569 149.861h-19.772v5.261h19.772v-5.261z" fill="#fff"/><path d="M419.074 84.945h-22v85.206h22V84.945z" fill="#C6EAE9"/><path d="M516.902 170.148H385.226v9.462h131.676v-9.462z" fill="#8CBFBE"/><path d="M317.314 76.941c16.53-16.515 16.53-43.29 0-59.805-16.53-16.514-43.329-16.514-59.859 0-16.53 16.515-16.53 43.29 0 59.805s43.329 16.515 59.859 0z" fill="#fff" stroke="#A9CF46" stroke-width="5" stroke-miterlimit="10"/><path d="M304.127 55.82l-18.09-8.59L305.8 29.835l.99 1.124-18.057 15.889 16.035 7.619-.641 1.351z" fill="#A9CF46"/><path d="M152.864 70.141H86.921c-5.112 0-9.255 4.14-9.255 9.246v37.042c0 5.107 4.144 9.247 9.255 9.247h65.943c5.111 0 9.255-4.14 9.255-9.247V79.387c0-5.106-4.144-9.246-9.255-9.246z" fill="#C6EAE9"/><path d="M151.433 84.08H88.351v5.249h63.082v-5.25z" fill="#8CBFBE"/><path opacity=".8" d="M151.433 95.285H88.351v5.25h63.082v-5.25zm0 11.203H88.351v5.249h63.082v-5.249z" fill="#fff"/><path d="M99.01 181.872l-11.99-9.369h23.979l-11.99 9.369z" fill="#B3CA17"/><path d="M114.235 116.978H48.292c-5.111 0-9.255 4.139-9.255 9.246v37.042c0 5.107 4.144 9.246 9.255 9.246h65.943c5.111 0 9.255-4.139 9.255-9.246v-37.042c0-5.107-4.144-9.246-9.255-9.246z" fill="#B3CA17"/><path opacity=".8" d="M65.073 148.669h-8.175v10.094h8.175v-10.094zm13.129-11.239h-8.175v21.336h8.175V137.43zm13.712 4.845H83.74v16.491h8.175v-16.491zm13.707-11.551h-8.175v28.039h8.175v-28.039z" fill="#fff"/></g><defs><clipPath id="clip0"><path fill="#fff" d="M0 0h562v418H0z"/></clipPath></defs></svg>